<svg enable-background="new 0 0 612 701.66" viewBox="0 0 612 701.66" xmlns="http://www.w3.org/2000/svg"><path d="m127.96 418.92c3.58-6.64 9.99-16.52 20.85-25.35 6.75-5.49 12.55-8.41 18.54-11.38 8.14-4.04 25.43-12.39 49.39-13.95 8.19-.53 19.15-1.24 32.79 2.36 21.28 5.62 43.19 20.18 47.57 26.38.39.55 2.7 3.96 6.74 5.38 1.96.69 3.25.54 3.72.46 2.85-.47 4.63-2.86 5.23-3.65 1.15-1.48 5.53-4.89 14.29-11.71 5.78-4.51 10.83-6.89 16-9.34 3.22-1.52 9.61-4.35 18.19-6.66 14.98-4.04 26.98-3.9 31.19-3.76 4.92.16 8.56.64 11.25 1 8.8 1.18 24.81 3.47 42.43 12.92 6.56 3.52 15.63 8.39 24.47 18.01 5.15 5.61 9.07 11.91 16.91 24.53 4.24 6.82 6.39 10.32 8.15 14.36 3.05 7.03 5.01 14.73 5.9 25.7 1.52 18.65 3.24 39.66-6.26 62.95-6.17 15.12-14.79 24.79-32.03 44.11-11.23 12.59-12.4 11.89-32.03 31.75-28.36 28.68-26.89 31.12-41.3 42.71-11.96 9.61-26.63 21.16-48.89 26.97-16.39 4.28-30.09 3.67-43.27 3.09-12.53-.55-24.04-1.16-37.93-6.46-10.26-3.92-16.97-8.56-26.41-15.17-13.98-9.8-23.09-18.73-35.68-31.19-15.57-15.4-15.99-17.65-31.75-32.87-13.72-13.26-13.66-11.81-22.76-21.07-15.42-15.7-25.38-25.85-31.75-42.15-4.96-12.69-5.5-23.36-6.18-36.81-.67-13.28-1.27-25.1 3.37-39.34 2.39-7.31 7.53-19.5 19.26-31.82z" fill="#bc1128"/><path d="m604.75 314.17c-1.8 83.92-33.49 157.32-96.95 216.71-1.57 1.47-3.55 2.85-4.38 4.71-9.45 21.01-26.05 36.22-41.94 52-23 22.85-44.46 47.34-69.1 68.43-51.96 44.49-130 41.69-179.24-6.13-27.34-26.55-54.1-53.71-81-80.71-4.17-4.19-8.66-8.54-11.29-13.69-9.14-17.89-23.95-30.94-36.91-45.66-56.34-63.99-82.51-138.73-74.69-223.69 10.16-110.53 65.93-192.45 164.43-242.46 176.28-89.51 391.33 19.17 426.25 213.75 3.2 17.85 4.29 35.9 4.82 56.74zm-405.48 62.98.09.07c-.09-1.03-.65-1.6-1.68-1.69l.04.03c-4.38-5.89-10.48-7.33-17.13-5.69-14.09 3.48-26.43 10.51-36.99 20.39-7.52 7.04-8.42 13.85-4.11 23.87 3.28 7.67 9.27 13.22 15.44 18.29 13.41 11 32.35 9.7 44.47-2.47 12.36-12.41 13.02-34.21 1.54-51.1-.55-.57-1.11-1.13-1.67-1.7zm215.73-1.61c-1.4.29-1.86 1.19-1.66 2.53-10.69 10.54-11.3 23.52-8.56 37.06 2.51 12.39 10.12 20.45 22.35 23.79 17.05 4.67 36.85-6.19 44.66-24.29 5.53-7.45 4.73-17.33-2.89-24.4-10.57-9.8-22.91-16.92-37-20.35-6.46-1.57-12.85-.85-16.94 5.68zm-277.71 59.99c-2.94-4.66-5.89-9.32-9.33-14.78-13.84 20.79-19.64 42.8-18.48 66.44.73 14.96 2.58 29.96 11.77 42.75 3.11 9.92 8.48 18.53 15.74 25.84 28.92 29.11 57.46 58.62 87.08 87 46.21 44.29 121.22 43.01 166.83-2.21 27.8-27.56 55.49-55.22 82.79-83.27 8.38-8.61 16.1-18.15 19.23-30.35 15.44-37.05 11.1-86.9-9.36-105.13-2.79 4.61-5.55 9.17-8.31 13.73-3.73.69-5.53 4.04-8.25 6.09-29.46 22.13-65.92 10.35-75.36-24.59-2.8-10.37-.99-20.79 1.15-31.1 1.67-3.37 2.99-6.98 5.1-10.06 3.17-4.63 2.66-6.18-3.28-6.33-30.89-.8-57.68 9.13-80.34 30.1-7.39 6.84-8.4 6.99-15.93.24-21.32-19.12-46.21-29.49-74.89-29.96-11.56-.19-11.56.29-6.81 10.29 1.04 2.19 2.07 4.38 3.1 6.57.55 2.91 1.24 5.8 1.63 8.73 2.6 19.87-1.76 37.7-18.98 49.33-16.76 11.32-34.72 10.22-51.98-.03-4.59-2.73-8.76-6.18-13.12-9.3zm44.4-244.88c6.56-.04 9.07-5.83 13.38-9.14 3.79-2.92 3.03-4.48.01-7.15-9.06-8-19.24-11.42-31.56-11.62-19.53-.33-35.28 12.79-41.28 28.31-6.62 17.09-1.21 37.4 12.4 49.3 8.8 7.69 10.08 7.46 15.46-3.17 1.45-2.86 2.56-5.89 3.83-8.84.92-.41 2.25-.56 2.71-1.27 7.34-11.2 15.35-21.88 24.7-31.49 1.6-1.68 1.65-3.19.35-4.93zm245.87 1.71c7.63 11.51 17.95 20.98 24.89 33.02 1.55 2.69 3.81.52 5.75.56-.72 1.35-2.41 3.2-2.01 3.97 2.69 5.2 4.88 11.44 9.22 14.65 2.01 1.48 8.45-3.24 11.91-6.71 2.66-2.66 5.41-5.34 7.52-8.42 18.96-27.64 1.89-62.6-27.9-69.06-15.27-3.31-29.37 1.76-40.97 12.51-2 1.86-5.29 4.49-2.22 7.4 4.43 4.19 7.63 9.89 13.81 12.08zm-216.54-42.34c2.53 11.3 7.6 21.76 10.86 32.81 1.44 4.87 3.32 6.02 8.49 4.46 22.58-6.81 45.87-9.28 69.37-9.67 27.34-.45 54.28 2.69 80.78 9.56 2.3.6 5.53 3.63 7.14-1.44 3.97-12.51 9.55-24.49 12.57-37.33 2.45-6.25 5.2-12.39 7.28-18.76 4.95-15.21-2.58-30.76-17.71-35.77-56.31-18.64-112.73-18.5-169.03-.01-15.07 4.95-22.61 20.73-17.59 35.88 2.27 6.88 5.2 13.53 7.84 20.27zm-72.01 217.62c-.06 6.05.56 9.23 7.76 4.52 15.53-10.15 31.71-19 51.51-12.75 1.66.52 3.74-.16 5.61-.41 36.49-5.03 69.02 4.24 97.52 27.42 3.56 2.9 5.57 3.17 9.21.06 26.91-22.98 58.42-31.41 93.29-28.65 3.76.3 7.83 2.12 11.19 1.18 18.28-5.11 33.24 2.54 48 11.45 7.62 4.61 7.58 4.68 8.98-4.5 1.76-6.26 2.6-12.68 2.74-19.15 1.31-62.39-22.45-113.74-68.22-155.54-4.77-4.36-6.57-4.65-8.66 2.04-3.31 10.63-4.11 10.47-15.17 7.43-51.34-14.14-102.76-15.13-154.14-.26-11.88 3.44-12.51 3.7-16.16-8.11-2.14-6.9-4.28-5.29-8.27-1.76-27.45 24.35-47.18 53.83-58.63 88.67-9.48 28.86-13.28 58.25-6.56 88.36zm-42.25 105.47c3.02-21.6 8.16-42.66 21.65-60.25 6.21-8.09 6-18.38 11.75-26.28.96-1.32-.07-2.57-.44-3.82-11.25-38.53-7.89-76.39 6.31-113.36 2.98-7.76 2.13-11.2-4.66-15.91-25.67-17.79-32.2-51.64-15.7-77.33 16.84-26.22 50.26-34.3 77.63-18.84 1.88 1.06 3.51 3.4 7.02 1.89-2.9-8.32-5.77-16.38-8.51-24.49-7.82-23.13 3.24-45.37 26.37-52.91 56.69-18.48 113.55-18.82 170.5-1.24 28.35 8.75 38.72 30 28.9 58.04-2.21 6.31-5.75 12.37-5.79 19.98 4.3-2.28 7.81-4.26 11.42-6.04 26.79-13.17 60.55-2.85 74.62 22.78 15.2 27.69 6.99 61.84-19.51 77.25-7.19 4.18-7.4 7.4-4.72 14.41 14.03 36.66 18.73 74.15 8.12 112.67-.56 2.04-1.47 4.09-.11 6.23 6.03 9.5 7.94 20.76 14.69 30.26 13.65 19.21 18.16 41.82 19.67 65.04-.89 8.39-1.78 16.78-2.75 25.92 68.45-68.35 101.98-183.92 61.73-294.51-41.64-114.38-152.84-190.46-273.57-187.75-126.32 2.83-231.85 82.51-269.57 205.32-32.3 105.17 4.08 215.18 67.29 276.49-1.63-11.6-2.65-22.54-2.34-33.55z" fill="#0a0a0c"/><path d="m139.01 367.64c-6.72-30.11-2.92-59.51 6.56-88.36 11.45-34.84 31.18-64.31 58.63-88.67 3.98-3.53 6.13-5.14 8.27 1.76 3.65 11.81 4.28 11.55 16.16 8.11 51.38-14.88 102.8-13.88 154.14.26 11.06 3.05 11.86 3.2 15.17-7.43 2.09-6.7 3.88-6.4 8.66-2.04 45.78 41.8 69.54 93.15 68.22 155.54-.14 6.48-.98 12.89-2.74 19.15-7.88-1.17-14.01-6.41-21.3-9.08-20.81-7.62-41.98-11.09-64.07-7.8-26.03 3.89-50.29 13.49-74.56 23.02-4.61 1.81-8.46 2-13.1.06-14.64-6.14-29.26-12.42-44.59-16.68-11.83-3.29-23.83-5.98-35.75-8.94 1.47-.6 2.93-1.23 4.41-1.78 3.48-1.29 6.35-3.48 6.64-7.27.34-4.45-3.24-6.52-6.67-8.13-4.02-1.88-8.42-1.23-12.68-1.14-5.95.13-11.96 1.73-13.58 7.89-1.76 6.66 5.17 7.58 9.21 10.17-1.61 1.92-3.84 1.58-5.96 1.65-22.25.74-42.37 8.03-61.07 19.71zm157.58-51.62c-6.12 1.78-10.6 5.74-12.73 11.55-3.63 9.87-.56 19.26 19.01 18.88 5.5 15.17-9.55 5.77-13.22 11.29 11.5-.45 22.51 1.64 33.42-.82-16-1.7-16-1.7-14.64-10.42 2.66-.23 5.38-.19 7.98-.73 5.31-1.12 10.93-2.36 12.46-8.63 1.53-6.26-.77-11.61-5.35-16.03-6.24-6.03-13.82-7.92-22.24-7.22-1.86.06-3.94-.38-4.69 2.13zm70.93 13.16c22.99.6 41.53-17.04 42.11-40.05.63-25.16-17.19-40.72-47.6-41.58-16.25-.46-34.07 19.57-34.69 38.98-.76 23.65 16.56 42.04 40.18 42.65zm-124.66 1.21c23.18.13 41.55-17.44 41.73-40.34.08-10.86-3.42-20.58-10.97-28.73-10.84-11.7-24.31-13.11-39.36-12.2-14.82.9-31.78 20.82-31.9 39.76-.15 23.28 17.52 41.39 40.5 41.51zm155.15 15.91c9.59.04 17.24-4.37 17.1-9.85-.15-5.75-8.98-10.59-18.19-9.26-6.18.89-13.54 1.24-14.54 9.76-.58 4.97 7.11 9.32 15.63 9.35z" fill="#fbfbfb"/><path d="m515.97 481.19c3.74.21 5.74-2.08 7.76-4.87 25.18-34.9 42.98-73.19 50.93-115.52 4.83-25.71 5.44-51.74 2.92-78.01-3.38-35.15-13.46-68.06-29.82-99.05-23.28-44.12-56.33-79.47-98.82-105.58-34.6-21.26-72.17-34.13-112.74-38.52-62.94-6.82-121.32 6.78-174.81 39.75-37.44 23.07-67.2 54.3-89.95 92.27-11.29 18.85-20.39 38.68-26.51 59.47-5.96 20.24-10.42 41.08-11.24 62.5-1.47 38.12 2.53 75.26 16.05 111.23 9.85 26.2 23.53 50.14 40.04 72.58 1.07 1.45 2.29 3.75 4.39 2.8 2.9-1.32.24-5.25 2.6-7.12-.31 11.01.71 21.96 2.34 33.56-63.22-61.33-99.6-171.34-67.3-276.51 37.72-122.81 143.25-202.49 269.57-205.32 120.73-2.71 231.93 73.38 273.57 187.75 40.26 110.59 6.73 226.16-61.73 294.51.97-9.14 1.86-17.53 2.75-25.92z" fill="#bc1128"/><path d="m211.02 150.02c-2.64-6.75-5.57-13.4-7.85-20.27-5.02-15.14 2.52-30.93 17.59-35.88 56.3-18.49 112.73-18.63 169.03.01 15.14 5.01 22.66 20.55 17.71 35.77-2.07 6.37-4.83 12.52-7.28 18.76-3.08.28-3.63 2.98-4.62 5.08-10.79 22.91-27.71 24.57-46.94 21.94-28.65-3.92-57.34-4.37-86.01-.13-18.45 2.73-36.64 1.55-46.34-19.65-.98-2.18-2.03-5.18-5.29-5.63z" fill="#fbfbfb"/><path d="m471.79 414.63c-7.81 18.1-27.61 28.95-44.66 24.29-12.23-3.35-19.85-11.4-22.35-23.79-2.74-13.54-2.13-26.52 8.56-37.06.55-.84 1.11-1.69 1.66-2.53 0 0-.04.02-.04.02 8.81-1.43 17.55-1.52 25.78 2.42 5.3 2.54 10.55 5.31 15.47 8.5 10.12 6.55 18.06 14.53 15.58 28.15z" fill="#0a0a0c"/><path d="m200.95 378.85c11.48 16.89 10.82 38.68-1.54 51.1-12.12 12.17-31.07 13.47-44.47 2.47-6.18-5.07-12.17-10.62-15.44-18.28 1.69-7.65 1.22-16.19 8.47-21.61 14.74-11.02 29.74-21.4 49.77-16.96 0 0-.04-.03-.04-.03.06 1.06.05-1.16 1.04-1.02 0 0 .55 2.64.55 2.64.54.56 1.1 1.12 1.66 1.69z" fill="#0a0a0c"/><path d="m427.56 192.36c-6.18-2.19-9.38-7.89-13.81-12.08-3.07-2.9.22-5.54 2.22-7.4 11.61-10.75 25.7-15.83 40.97-12.51 29.79 6.46 46.86 41.41 27.9 69.06-2.11 3.08-4.87 5.75-7.52 8.42-3.45 3.47-9.9 8.19-11.91 6.71-4.34-3.21-6.53-9.45-9.22-14.65-.4-.77 1.29-2.62 2.01-3.97l.11.11c1.67.19 3.08-.1 3.58-2l.2.45s-.46.17-.46.17c.65-.76 1.3-1.51 1.96-2.27 5.7-6.78 10.01-14.08 7.47-23.4-2.53-9.27-8.49-15.73-17.89-17.77-10.87-2.35-19.35 2.18-25.61 11.13z" fill="#313131"/><path d="m219.74 386.8c-1.03-2.19-2.06-4.38-3.1-6.57-4.76-10-4.75-10.48 6.81-10.29 28.68.47 53.57 10.84 74.89 29.96 7.54 6.76 8.54 6.6 15.93-.24 22.66-20.97 49.45-30.89 80.34-30.1 5.93.15 6.45 1.7 3.28 6.33-2.11 3.07-3.43 6.69-5.1 10.05-4.03-.73-8.05-1.33-11.89.79-23.58-.35-44.23 7.93-62.86 21.74-11.95 8.85-11.79 9.04-23.46.3-1.93-1.45-4.01-2.71-6.02-4.05-3.77-3.18-8.09-5.26-12.83-6.52-11.65-6.81-24.27-10.38-37.69-11.25-6.1-.04-12.2-.1-18.3-.15z" fill="#bc1128"/><path d="m153.91 228.33c-1.27 2.95-2.38 5.98-3.83 8.84-5.37 10.63-6.66 10.86-15.46 3.17-13.61-11.9-19.01-32.21-12.4-49.3 6.01-15.51 21.75-28.64 41.28-28.31 12.32.21 22.5 3.63 31.56 11.62 3.02 2.67 3.79 4.23-.01 7.15-4.31 3.31-6.82 9.1-13.38 9.14-6.54-5.03-13.46-8.91-22.15-6.81-9.75 2.35-16.28 8.43-18.28 18.19-2.38 11.65 2.87 20.22 12.67 26.31z" fill="#2f2f2f"/><path d="m427.56 192.36c6.26-8.95 14.74-13.48 25.6-11.12 9.4 2.04 15.36 8.49 17.89 17.77 2.54 9.32-1.77 16.62-7.47 23.4-.65.76-1.3 1.51-1.96 2.27 0 0 .46-.17.46-.17s-.2-.45-.2-.45c-1.4.3-2.84.52-3.58 1.99l-.11-.11c-1.94-.04-4.2 2.13-5.75-.56-6.93-12.04-17.25-21.52-24.88-33.02z" fill="#f5f5f5"/><path d="m153.91 228.33c-9.8-6.09-15.05-14.65-12.66-26.3 2.01-9.76 8.53-15.84 18.28-18.19 8.7-2.1 15.62 1.78 22.15 6.81 1.3 1.75 1.25 3.25-.37 4.92-9.35 9.62-17.36 20.29-24.7 31.49-.45.71-1.78.86-2.7 1.27z" fill="#f5f5f5"/><path d="m480.09 443.54c.01-3.64-1.4-6.42-4.83-7.98 2.76-4.56 5.52-9.13 8.31-13.73 20.46 18.23 24.8 68.08 9.36 105.14-2.43-1.85-1.46-4.49-1.58-6.88 6.81-24.98 3.53-48.8-8.16-71.67-.52-1.03-1.05-2.06-1.57-3.08l-.04-.04c-.53-.56-1.06-1.11-1.6-1.67z" fill="#bc1128"/><path d="m197.72 375.56c-20.03-4.44-35.02 5.94-49.77 16.96-7.24 5.42-6.78 13.96-8.47 21.61-4.31-10.03-3.42-16.83 4.11-23.87 10.56-9.88 22.9-16.9 36.99-20.39 6.66-1.64 12.76-.19 17.14 5.69z" fill="#0a0a0c"/><path d="m471.79 414.63c2.48-13.62-5.46-21.6-15.57-28.15-4.93-3.2-10.17-5.97-15.47-8.5-8.23-3.94-16.98-3.85-25.78-2.42 4.09-6.53 10.48-7.25 16.94-5.68 14.09 3.43 26.42 10.55 37 20.35 7.62 7.07 8.42 16.95 2.88 24.4z" fill="#0a0a0c"/><path d="m415 375.54c-.55.84-1.11 1.69-1.66 2.53-.2-1.34.26-2.25 1.66-2.53z" fill="#646464"/><path d="m200.95 378.85c-.56-.57-1.12-1.13-1.67-1.7.55.57 1.11 1.13 1.67 1.7z" fill="#646464"/><path d="m367.52 329.18c-23.61-.61-40.94-19-40.18-42.64.62-19.41 18.44-39.44 34.69-38.98 30.41.86 48.22 16.42 47.6 41.58-.58 23-19.12 40.64-42.11 40.04zm-19.05-54.09c-6.5.23-11.42 5.46-10.91 10.69.57 5.86 5.06 8.91 9.75 10.3 4.26 1.26 11.02-6.3 10.55-11.12-.6-6.16-4.23-9.54-9.39-9.87z" fill="#313131"/><path d="m242.86 330.39c-22.98-.13-40.65-18.23-40.5-41.51.12-18.94 17.08-38.87 31.9-39.76 15.05-.91 28.52.5 39.36 12.2 7.56 8.15 11.06 17.87 10.97 28.73-.18 22.91-18.55 40.47-41.73 40.34zm10.09-44.32c.1 4.78 6.38 11.79 10.31 11.49 4.38-.33 10.3-7.34 9.79-12.1-.61-5.8-4.14-9.25-9.94-9.64-5.32-.35-10.27 4.93-10.16 10.25z" fill="#313131"/><path d="m296.59 316.02c8.42-.7 20.68-.94 26.92 5.09 4.58 4.43 6.88 9.77 5.35 16.03-1.53 6.27-7.15 7.51-12.46 8.63-2.6.55-5.32.51-7.98.73-1.85-.02-3.7-.04-5.55-.06-19.57.39-22.63-9-19.01-18.88 2.13-5.79 6.61-9.75 12.73-11.54" fill="#313131"/><g fill="#0a0a0c"><path d="m302.87 346.45 5.55.06c-1.35 8.72-1.35 8.72 14.64 10.42-10.91 2.46-21.92.37-33.42.82 3.68-5.53 18.73 3.87 13.23-11.3z"/><path d="m458.31 226.04c.74-1.48 2.18-1.69 3.58-1.99-.5 1.89-1.91 2.18-3.58 1.99z"/><path d="m461.63 224.67c.65-.76 1.3-1.51 1.96-2.27-.66.76-1.31 1.52-1.96 2.27z"/></g><path d="m483.18 448.41c-1.38-.59-1.55-1.8-1.57-3.08.53 1.02 1.05 2.05 1.57 3.08z" fill="#ca161a"/><path d="m481.58 445.28c-.53-.55-1.06-1.11-1.6-1.66.53.55 1.07 1.11 1.6 1.66z" fill="#ca161a"/><path d="m348.47 275.09c5.15.33 8.79 3.71 9.39 9.87.47 4.82-6.3 12.38-10.55 11.12-4.69-1.39-9.18-4.44-9.75-10.3-.51-5.23 4.41-10.47 10.91-10.69z" fill="#f5f5f5"/><path d="m252.95 286.07c-.11-5.32 4.84-10.6 10.16-10.25 5.8.38 9.33 3.83 9.94 9.64.5 4.76-5.41 11.77-9.79 12.1-3.93.3-10.21-6.71-10.31-11.49z" fill="#f5f5f5"/><path d="m387.45 579.99.67.37-.3.3z" fill="#fd1416"/><path d="m277.46 528.64c-3.29-2.02-6.02-4.49-8.16-7.4-2.15-2.91-2.22-6.52-.19-10.83 2.02-4.56 4.94-7.15 8.74-7.79 3.8-.63 7.6.07 11.39 2.09 6.08 3.04 13.04 5.26 20.89 6.65s15.32 1.59 22.41.57c7.09-1.01 13.23-3.54 18.42-7.6 5.19-4.05 8.17-10.12 8.93-18.23.5-4.56 0-9.17-1.52-13.86-1.52-4.68-4.24-8.92-8.17-12.72s-9.37-6.9-16.33-9.31c-6.97-2.4-15.64-3.61-26.02-3.61-17.47 0-30.57 3.36-39.31 10.06-8.74 6.71-13.1 17.92-13.1 33.61v98.75c0 4.56-.95 8.55-2.85 11.96-1.9 3.42-5.38 5.13-10.44 5.13-5.32 0-9.06-1.71-11.2-5.13-2.15-3.42-3.23-7.41-3.23-11.96v-108.23c0-10.88 2.4-20.25 7.22-28.1 4.81-7.85 11.01-14.18 18.61-18.99s16.14-8.36 25.64-10.63c9.49-2.28 19.05-3.42 28.67-3.42 10.12 0 20.06 1.14 29.81 3.42 9.74 2.28 18.42 6.02 26.02 11.2 7.6 5.19 13.73 11.77 18.42 19.75 4.68 7.97 6.9 17.66 6.65 29.05-.26 10.89-2.47 19.94-6.65 27.15-4.18 7.22-9.56 12.98-16.14 17.28-6.59 4.31-13.93 7.35-22.03 9.11-8.11 1.77-16.27 2.6-24.5 2.47-8.23-.12-16.02-1.14-23.36-3.04-7.36-1.89-13.56-4.36-18.62-7.4z" fill="#fff"/><path d="m253.42 106.49h104.23v33.9h-104.23z" fill="#bc1128"/><path d="m264.94 106.49h80.55v33.9h-80.55z" fill="#bc1128" transform="matrix(0 1 -1 0 428.6525 -181.7762)"/></svg>