<svg enable-background="new 0 0 612 792" viewBox="0 0 612 792" xmlns="http://www.w3.org/2000/svg"><g fill="#fff"><path d="m607.2 254.7c0 139.23-138.78 435.75-304.38 435.75s-295.34-296.52-295.34-435.75 134.25-252.1 299.86-252.1 299.86 112.87 299.86 252.1z"/><path d="m607.63 656.89c0 58.62-138.33 133.54-304.82 133.54s-298.11-74.92-298.11-133.54 134.97-106.14 301.47-106.14 301.46 47.51 301.46 106.14z"/><path d="m306.42 173.01c109.16.04 203.95 65.01 228.22 155.72 11.82 44.17 4.12 86.02-16.8 126.86-19.31 37.71-45.52 71.75-73.72 104.9-36.1 42.44-77.53 80.73-121.1 117.46-11.77 9.92-21.4 9.94-33.07.23-40.46-33.68-78.91-68.97-112.86-107.6-31.7-36.08-61.53-73.27-82.33-115.13-13.99-28.15-24.58-57.15-22.32-88.1 6.27-85.71 55.79-145.93 147.71-180.08 27.72-10.3 56.33-14.27 86.27-14.26z"/></g><path d="m306.42 144.47c109.16.04 203.95 65.01 228.22 155.72 11.82 44.17 4.12 86.02-16.8 126.86-19.31 37.71-45.52 71.75-73.72 104.9-36.1 42.44-77.53 80.73-121.1 117.46-11.77 9.92-21.4 9.94-33.07.23-40.46-33.68-78.91-68.97-112.86-107.6-31.7-36.08-61.53-73.27-82.33-115.13-13.99-28.15-24.58-57.15-22.32-88.1 6.27-85.71 55.79-145.93 147.71-180.08 27.72-10.31 56.33-14.27 86.27-14.26z" fill="#2ba8e1"/><path d="m208.08 604.08c-6.9 2.78-13.45 6.07-19.51 10.06-22.94 15.16-22.64 35.61.62 50.37 17.36 11.01 37.22 16.91 58.01 20.62 41.57 7.42 83.19 7.22 124.54-1.26 21.05-4.31 41.27-10.56 57.39-23.7 16.27-13.25 16.11-28.85-.03-42.25-6.78-5.63-14.66-9.84-23.14-13.24-3.08-1.23-3.57-2.12-1.07-4.47 10.38-9.76 20.58-19.67 30.71-29.62 2.01-1.98 3.65-2.47 6.78-1.66 30.43 7.87 59.46 18.11 84.48 35.41 7.9 5.46 14.87 11.66 20.53 18.91 15.34 19.65 14.83 40.97-1.53 60.16-13.01 15.26-30.67 25.64-49.89 34.24-32.53 14.57-67.47 22.76-103.46 27.85-57.96 8.2-116 8.15-173.91-.22-39.2-5.66-77.11-14.99-111.76-32.32-11.88-5.94-22.82-12.96-32.35-21.53-27.15-24.41-27.08-54.13.32-78.37 19.22-17 43.08-27.64 68.4-36.13 8.83-2.96 18.04-5.09 26.93-7.96 3.39-1.09 5.12-.22 7.23 1.87 9.33 9.25 18.84 18.37 28.28 27.54.61 1.96 5.8 2.49 2.43 5.7z" fill="#2ba8e1"/><path d="m208.08 629.61c1.98-2.77-2.37-3.57-2.43-5.7 1.2 1.78 7.66 1.92 2.43 5.7z" fill="#6f6f6f"/><path d="m306.19 277.54c43.52-.13 78.88 30.01 79.02 67.34.14 37.47-35.44 68.07-79 67.94-43.47-.13-78.71-30.42-78.73-67.69-.03-37.33 35.06-67.46 78.71-67.59z" fill="#fefefe"/><path d="m73.78 345.63c.18-25 5.18-49.11 14.93-72.54 2.97-7.14 1.07-13.42-3.54-19.61-9.83-13.2-17.73-27.03-20.55-42.83-7.03-39.36 28.63-74 75.1-72.86 14.6.36 28.23 3.57 40.86 9.48 18.6 8.7 37.08 9.85 57.74 4.73 44.69-11.06 89.98-10.36 134.92-.27 16.94 3.8 32.74 2.24 48.04-4.66 14.83-6.69 30.3-11.29 47.33-11.15 37.23.3 81.05 27.69 72.11 73.45-2.94 15.04-8.81 28.9-19.84 40.98-3.79 4.14-4.19 8.23-1.78 13.18 16.88 34.62 21.24 70.77 16.98 107.83-6.64 57.83-41.69 98.49-103.29 121.6-62.05 23.28-126.8 27.71-193.16 16.46-32.58-5.52-63.11-15.19-90.98-30.94-40.46-22.86-63.45-55.16-70.74-95.83-2.18-12.24-2.8-24.68-4.13-37.02zm26.61-4.14c.24 26.34 3.23 48.54 13.76 69.58 15.35 30.7 43.69 49.82 78.23 62.56 44.97 16.59 92.26 22.43 140.95 18.15 33.25-2.93 65.83-8.54 95.98-21.91 33.91-15.04 60.84-35.65 72.41-67.86 16.31-45.43 13.45-90.34-8.65-133.89-18.32-36.11-46.22-65.33-88.42-82.83-44.07-18.27-90.56-22.77-138.55-15.87-39.42 5.67-75.15 18.46-103.57 43.34-41.97 36.74-61.79 81.3-62.14 128.73z"/><path d="m100.39 341.49c.35-47.44 20.17-92 62.13-128.73 28.42-24.88 64.16-37.68 103.57-43.34 48-6.9 94.48-2.41 138.55 15.87 42.2 17.5 70.1 46.72 88.42 82.83 22.1 43.55 24.96 88.46 8.65 133.89-11.57 32.21-38.49 52.82-72.41 67.86-30.15 13.37-62.73 18.98-95.98 21.91-48.69 4.29-95.98-1.56-140.95-18.15-34.53-12.74-62.87-31.86-78.23-62.56-10.51-21.04-13.51-43.23-13.75-69.58zm299.78-58.38c-4.81.3-9.64.43-14.41.94-36.88 3.91-58.82 35.13-43 63.82 14.69 26.65 37.35 48.73 63.76 67.45 14.69 10.41 32.68 11.73 51.07 7.33 30.4-7.28 41.31-33.93 39.34-57.22-2.02-23.88-15.77-42.3-36.24-57.77-17.46-13.19-36.19-23.72-60.52-24.55zm-189.53 2.98c-9.07 1.91-18.49 3.05-27.14 5.88-20.11 6.58-35.43 18.92-48.68 32.98-15.4 16.33-20.83 35.33-17.15 56.04 6.31 35.53 49.53 51.68 84.24 31.48 5.09-2.96 10.15-6.39 13.96-10.47 15.2-16.27 30.6-32.47 44.52-49.53 8.01-9.83 9.31-21.76 5.05-33.52-7.4-20.44-26.98-31.72-54.8-32.86zm94.01 172.84c20.66-.51 38.94-5.57 52.76-19.4 4.39-4.39 4.33-8.54-.22-11.25-4.69-2.8-8.76-1.78-12.65 1.83-20.61 19.1-58.96 19.06-79.45.11-1.48-1.37-3.7-3.21-5.4-3.09-3.1.22-6.91 1.07-8.9 2.89-3.32 3.01-1.7 6.61 1.27 9.54 13.93 13.69 32.15 18.85 52.59 19.37z" fill="#fff"/><path d="m400.17 283.11c24.33.83 43.06 11.36 60.51 24.55 20.48 15.47 34.22 33.89 36.24 57.77 1.97 23.29-8.94 49.93-39.34 57.22-18.39 4.41-36.37 3.09-51.07-7.33-26.41-18.72-49.07-40.8-63.76-67.45-15.82-28.7 6.12-59.92 43-63.82 4.79-.5 9.62-.63 14.42-.94zm-33.9 46.9c.1 11.02 10.89 20.06 23.96 20.08 13.3.02 24.59-9.43 24.43-20.45-.16-11.08-11.54-20.24-24.87-20.02-13.18.22-23.62 9.27-23.52 20.39z"/><path d="m210.64 286.09c27.82 1.14 47.39 12.42 54.79 32.86 4.26 11.76 2.96 23.69-5.05 33.52-13.92 17.07-29.32 33.26-44.52 49.53-3.81 4.08-8.87 7.51-13.96 10.47-34.72 20.2-77.93 4.05-84.24-31.48-3.68-20.71 1.75-39.71 17.15-56.04 13.26-14.06 28.57-26.4 48.68-32.98 8.67-2.83 18.08-3.97 27.15-5.88zm-16.27 43.4c-.28 11.04 10.02 20.15 23.3 20.59 13.19.44 24.57-8.69 24.84-19.93.26-11.02-10.26-20.25-23.38-20.52-13.62-.28-24.47 8.43-24.76 19.86z"/><path d="m304.65 458.93c-20.44-.51-38.66-5.68-52.6-19.38-2.98-2.92-4.59-6.52-1.27-9.54 2-1.81 5.81-2.67 8.9-2.89 1.71-.12 3.93 1.73 5.4 3.09 20.49 18.95 58.83 18.99 79.45-.11 3.9-3.61 7.97-4.63 12.65-1.83 4.54 2.71 4.61 6.86.22 11.25-13.81 13.83-32.09 18.9-52.75 19.41z"/><path d="m366.27 330.01c-.1-11.12 10.34-20.17 23.52-20.39 13.33-.22 24.71 8.94 24.87 20.02.16 11.02-11.13 20.47-24.43 20.45-13.06-.02-23.86-9.06-23.96-20.08z" fill="#fff"/><path d="m194.37 329.49c.29-11.43 11.14-20.14 24.75-19.86 13.12.27 23.64 9.5 23.38 20.52-.26 11.24-11.65 20.38-24.84 19.93-13.27-.44-23.57-9.55-23.29-20.59z" fill="#fff"/><path d="m186.91 127.66c6.86-10.25 15.59-19.46 25.63-27.52-8.6-7.57-17.1-15.06-25.96-22.86 25.87-35.36 62.54-56.38 111.59-58.7 54.86-2.6 96.68 17.83 127.01 56.57-9.18 7.82-18.03 15.35-27.08 23.07 10.7 8.3 19.64 17.33 26.99 27.85-6.65 5.65-13.54 11.03-19.75 16.94-4.08 3.89-8.39 5.61-14.5 5.15-3.54-.27-6.52-.78-9.55-2.53-18.94-10.93-39.78-17.72-62.58-19.32-34.06-2.39-65.73 3.66-93.93 20.91-.8.49-1.94.75-2.94.78-11.1.35-11.14.37-19.07-6.42-5.31-4.55-10.5-9.21-15.86-13.92zm153.59-49.41c0-5.37 0-10.4 0-15.68-8.18 0-16.12 0-24.36 0 0-7.88 0-15.5 0-23.12-7.02 0-13.72 0-20.74 0v23.26c-8.26 0-16.18 0-24.22 0v15.59h24.32v23.27h20.81c0-7.78 0-15.46 0-23.33 8.28.01 16.14.01 24.19.01z"/><path d="m340.5 78.25c-8.06 0-15.92 0-24.19 0v23.33c-7.11 0-13.8 0-20.81 0 0-7.75 0-15.38 0-23.27-8.24 0-16.17 0-24.32 0 0-5.28 0-10.31 0-15.59h24.22c0-7.87 0-15.5 0-23.26h20.74v23.12h24.36z" fill="#fff"/><path d="m115.35 229.5c-17.17-9.15-26.38-22.02-22.19-39.51 3.52-14.66 14.95-23.8 32.05-27.33 15.24-3.15 27.37 2.67 38.83 10.23 2.27 2.63 2.19 4.89-.65 7.39-16.39 14.45-30.43 30.48-43.29 47.31-.81 1.07-3.13 1.29-4.75 1.91z" fill="#f5f5f5"/><path d="m494.29 226.5c17.17-9.15 26.38-22.02 22.19-39.51-3.52-14.66-14.95-23.8-32.05-27.33-15.24-3.15-27.37 2.67-38.83 10.23-2.27 2.63-2.19 4.89.65 7.39 16.39 14.45 30.43 30.48 43.29 47.31.81 1.07 3.13 1.29 4.75 1.91z" fill="#f5f5f5"/><path d="m305.75 381.05c1.94-2.86 4.44-4.96 7.6-6.23 9.77-3.92 20.11 2.08 22.26 11.79 1.13 5.1.17 9.87-2.61 14.3-2.21 3.52-4.93 6.62-7.84 9.55-4.82 4.85-10.08 9.2-15.46 13.41-1.07.84-2.16 1.66-3.24 2.49-.51.39-.9.4-1.4.02-5.89-4.48-11.66-9.1-17.01-14.23-3.24-3.1-6.31-6.36-8.82-10.09-1.55-2.31-2.88-4.75-3.38-7.51-1.18-6.44.22-12.14 5.16-16.68 7.26-6.67 18.87-5.31 24.48 2.81.08.11.15.22.26.37z"/><path d="m304.96 420.36v26.22" fill="#fff" stroke="#000" stroke-miterlimit="10" stroke-width="4"/></svg>