<svg enable-background="new 0 0 612 792" viewBox="0 0 612 792" xmlns="http://www.w3.org/2000/svg"><path d="m489.36 533.19h-371.18c-27.61 0-50-22.39-50-50v-371.18c0-27.61 22.39-50 50-50h371.18c27.61 0 50 22.39 50 50v371.18c0 27.61-22.38 50-50 50z" fill="#fff" stroke="#2f2f2f" stroke-miterlimit="10" stroke-width="9"/><path d="m191.27 347.01c2.17-4.02 6.05-10 12.63-15.35 4.09-3.32 7.6-5.09 11.23-6.89 4.93-2.44 15.4-7.51 29.91-8.45 4.96-.32 11.6-.75 19.86 1.43 12.88 3.4 26.16 12.22 28.81 15.98.23.33 1.64 2.4 4.08 3.26 1.19.42 1.97.32 2.25.28 1.72-.28 2.8-1.73 3.17-2.21.69-.9 3.35-2.96 8.65-7.09 3.5-2.73 6.56-4.17 9.69-5.65 1.95-.92 5.82-2.63 11.02-4.03 9.07-2.44 16.34-2.36 18.89-2.28 2.98.1 5.18.39 6.81.61 5.33.71 15.02 2.1 25.69 7.83 3.97 2.13 9.47 5.08 14.82 10.9 3.12 3.4 5.49 7.22 10.24 14.86 2.57 4.13 3.87 6.25 4.93 8.69 1.85 4.26 3.03 8.92 3.57 15.57.92 11.3 1.96 24.02-3.79 38.12-3.74 9.16-8.96 15.01-19.4 26.71-6.8 7.63-7.51 7.2-19.4 19.23-17.17 17.37-16.29 18.85-25.01 25.86-7.24 5.82-16.13 12.82-29.61 16.33-9.92 2.59-18.22 2.22-26.2 1.87-7.59-.34-14.56-.7-22.97-3.91-6.21-2.37-10.28-5.18-15.99-9.19-8.47-5.93-13.98-11.34-21.61-18.89-9.43-9.33-9.68-10.69-19.23-19.91-8.31-8.03-8.27-7.15-13.78-12.76-9.34-9.51-15.37-15.65-19.23-25.52-3-7.68-3.33-14.15-3.74-22.29-.41-8.04-.77-15.2 2.04-23.82 1.45-4.44 4.57-11.83 11.67-19.29z" fill="#bc1128"/><path d="m480 283.58c-1.09 50.82-20.28 95.27-58.71 131.24-.95.89-2.15 1.73-2.65 2.85-5.72 12.73-15.78 21.94-25.4 31.49-13.93 13.84-26.92 28.67-41.85 41.44-31.47 26.94-78.73 25.25-108.54-3.71-16.56-16.08-32.76-32.52-49.05-48.88-2.53-2.54-5.25-5.17-6.84-8.29-5.53-10.84-14.51-18.74-22.35-27.65-34.11-38.75-49.96-84.01-45.23-135.46 6.16-66.94 39.93-116.55 99.58-146.83 106.76-54.2 236.99 11.61 258.13 129.44 1.94 10.81 2.6 21.74 2.91 34.36zm-245.55 38.14.05.04c-.05-.62-.39-.97-1.02-1.02l.02.02c-2.65-3.57-6.35-4.44-10.38-3.44-8.54 2.11-16.01 6.36-22.4 12.35-4.56 4.26-5.1 8.39-2.49 14.45 1.98 4.64 5.61 8.01 9.35 11.07 8.12 6.66 19.59 5.87 26.93-1.5 7.49-7.52 7.88-20.72.94-30.94-.32-.34-.66-.69-1-1.03zm130.65-.98c-.85.17-1.13.72-1.01 1.53-6.47 6.38-6.84 14.24-5.18 22.44 1.52 7.5 6.13 12.38 13.54 14.41 10.33 2.83 22.32-3.75 27.05-14.71 3.35-4.51 2.87-10.5-1.75-14.78-6.4-5.94-13.87-10.25-22.41-12.33-3.91-.95-7.78-.51-10.26 3.44zm-168.18 36.34c-1.78-2.82-3.57-5.65-5.65-8.95-8.38 12.59-11.89 25.92-11.19 40.23.44 9.06 1.56 18.14 7.13 25.89 1.88 6.01 5.14 11.22 9.53 15.65 17.51 17.63 34.8 35.5 52.74 52.69 27.99 26.82 73.41 26.05 101.03-1.34 16.83-16.69 33.61-33.44 50.14-50.43 5.08-5.22 9.75-10.99 11.65-18.38 9.35-22.44 6.72-52.63-5.67-63.67-1.69 2.79-3.36 5.55-5.03 8.32-2.26.42-3.35 2.45-5 3.69-17.84 13.4-39.92 6.27-45.64-14.89-1.7-6.28-.6-12.59.7-18.83 1.01-2.04 1.81-4.23 3.09-6.09 1.92-2.81 1.61-3.74-1.99-3.83-18.71-.48-34.93 5.53-48.65 18.23-4.48 4.14-5.09 4.24-9.65.14-12.91-11.58-27.98-17.86-45.35-18.15-7-.12-7 .18-4.12 6.23.63 1.32 1.25 2.65 1.88 3.98.33 1.76.75 3.51.98 5.29 1.57 12.04-1.07 22.83-11.49 29.87-10.15 6.86-21.03 6.19-31.48-.02-2.8-1.65-5.32-3.74-7.96-5.63zm26.89-148.31c3.97-.02 5.49-3.53 8.1-5.54 2.3-1.77 1.83-2.71 0-4.33-5.49-4.84-11.65-6.91-19.11-7.04-11.83-.2-21.36 7.75-25 17.14-4.01 10.35-.74 22.65 7.51 29.86 5.33 4.66 6.11 4.51 9.36-1.92.88-1.73 1.55-3.57 2.32-5.35.56-.25 1.36-.34 1.64-.77 4.44-6.78 9.29-13.25 14.96-19.07.97-1 1-1.92.22-2.98zm148.89 1.04c4.62 6.97 10.87 12.71 15.07 19.99.94 1.63 2.31.31 3.48.34-.44.82-1.46 1.94-1.22 2.4 1.63 3.15 2.95 6.93 5.58 8.87 1.22.9 5.12-1.96 7.21-4.06 1.61-1.61 3.28-3.23 4.56-5.1 11.48-16.74 1.15-37.91-16.89-41.82-9.25-2.01-17.78 1.07-24.81 7.58-1.21 1.12-3.2 2.72-1.34 4.48 2.68 2.55 4.62 5.99 8.36 7.32zm-131.13-25.64c1.53 6.84 4.6 13.18 6.58 19.87.87 2.95 2.01 3.64 5.14 2.7 13.68-4.12 27.78-5.62 42.01-5.86 16.56-.27 32.87 1.63 48.92 5.79 1.39.36 3.35 2.2 4.32-.87 2.41-7.58 5.78-14.83 7.61-22.6 1.48-3.78 3.15-7.51 4.41-11.36 3-9.21-1.56-18.63-10.73-21.66-34.1-11.29-68.27-11.2-102.37 0-9.13 3-13.69 12.56-10.65 21.73 1.38 4.15 3.16 8.18 4.76 12.26zm-43.61 131.79c-.04 3.66.34 5.59 4.7 2.74 9.41-6.15 19.21-11.51 31.2-7.72 1.01.32 2.26-.1 3.39-.25 22.1-3.04 41.8 2.56 59.06 16.61 2.16 1.76 3.37 1.92 5.58.04 16.3-13.91 35.38-19.02 56.5-17.35 2.28.18 4.74 1.28 6.77.72 11.07-3.09 20.13 1.54 29.07 6.94 4.62 2.79 4.59 2.83 5.44-2.72 1.07-3.79 1.58-7.68 1.66-11.6.79-37.78-13.59-68.88-41.32-94.19-2.89-2.64-3.98-2.82-5.24 1.24-2.01 6.43-2.49 6.34-9.19 4.5-31.09-8.57-62.23-9.17-93.35-.16-7.19 2.08-7.57 2.24-9.79-4.91-1.29-4.18-2.59-3.2-5.01-1.07-16.62 14.75-28.57 32.6-35.5 53.7-5.74 17.45-8.04 35.25-3.97 53.48zm-25.59 63.87c1.83-13.08 4.94-25.84 13.11-36.49 3.76-4.9 3.63-11.13 7.11-15.92.58-.8-.04-1.56-.26-2.31-6.81-23.33-4.78-46.26 3.82-68.65 1.8-4.7 1.29-6.78-2.82-9.63-15.54-10.77-19.5-31.27-9.51-46.83 10.2-15.88 30.44-20.77 47.01-11.41 1.14.64 2.13 2.06 4.25 1.14-1.75-5.04-3.49-9.92-5.16-14.83-4.74-14.01 1.96-27.48 15.97-32.04 34.33-11.19 68.77-11.4 103.25-.75 17.17 5.3 23.45 18.17 17.5 35.15-1.34 3.82-3.48 7.49-3.5 12.1 2.6-1.38 4.73-2.58 6.92-3.66 16.22-7.98 36.67-1.72 45.19 13.8 9.2 16.77 4.23 37.45-11.82 46.78-4.35 2.53-4.48 4.48-2.86 8.73 8.5 22.2 11.34 44.9 4.91 68.23-.34 1.23-.89 2.48-.07 3.77 3.65 5.75 4.81 12.57 8.9 18.33 8.27 11.63 11 25.33 11.91 39.39-.54 5.08-1.08 10.16-1.66 15.7 41.45-41.39 61.76-111.38 37.38-178.35-25.21-69.26-92.56-115.34-165.67-113.7-76.5 1.72-140.41 49.97-163.25 124.35-19.56 63.69 2.47 130.31 40.75 167.44-.97-7.04-1.59-13.67-1.4-20.34z" fill="#0a0a0c"/><path d="m197.96 315.96c-4.07-18.24-1.77-36.04 3.97-53.51 6.93-21.1 18.88-38.95 35.5-53.7 2.41-2.14 3.71-3.11 5.01 1.07 2.21 7.15 2.59 6.99 9.79 4.91 31.12-9.01 62.26-8.41 93.35.16 6.7 1.85 7.18 1.94 9.19-4.5 1.26-4.06 2.35-3.88 5.24-1.24 27.72 25.31 42.11 56.41 41.32 94.19-.08 3.92-.59 7.81-1.66 11.6-4.77-.71-8.48-3.88-12.9-5.5-12.6-4.62-25.42-6.72-38.8-4.72-15.76 2.35-30.46 8.17-45.15 13.94-2.79 1.1-5.12 1.21-7.93.03-8.86-3.72-17.72-7.52-27-10.1-7.16-1.99-14.43-3.62-21.65-5.41.89-.36 1.77-.74 2.67-1.08 2.1-.78 3.84-2.1 4.02-4.41.2-2.7-1.96-3.95-4.04-4.92-2.43-1.14-5.1-.74-7.68-.69-3.6.08-7.24 1.05-8.23 4.78-1.06 4.03 3.13 4.59 5.57 6.16-.97 1.16-2.33.96-3.61 1-13.47.46-25.66 4.87-36.98 11.94zm95.43-31.26c-3.71 1.08-6.42 3.48-7.71 6.99-2.2 5.98-.34 11.67 11.51 11.43 3.33 9.19-5.78 3.49-8 6.84 6.96-.27 13.63.99 20.24-.49-9.69-1.03-9.69-1.03-8.87-6.31 1.61-.14 3.26-.11 4.83-.44 3.22-.68 6.62-1.43 7.55-5.23.93-3.79-.47-7.03-3.24-9.71-3.78-3.65-8.37-4.79-13.47-4.37-1.13.04-2.39-.23-2.84 1.29zm42.95 7.97c13.92.36 25.15-10.32 25.5-24.25.38-15.23-10.41-24.66-28.83-25.18-9.84-.28-20.63 11.85-21.01 23.61-.45 14.31 10.04 25.45 24.34 25.82zm-75.49.73c14.04.08 25.16-10.56 25.27-24.43.05-6.58-2.07-12.46-6.64-17.4-6.56-7.08-14.72-7.94-23.84-7.39-8.97.54-19.25 12.61-19.32 24.08-.09 14.1 10.61 25.07 24.53 25.14zm93.96 9.64c5.81.02 10.44-2.65 10.36-5.96-.09-3.48-5.44-6.41-11.02-5.61-3.74.54-8.2.75-8.81 5.91-.35 3.01 4.31 5.64 9.47 5.66z" fill="#fbfbfb"/><path d="m426.24 384.72c2.27.13 3.48-1.26 4.7-2.95 15.25-21.14 26.03-44.33 30.84-69.96 2.92-15.57 3.3-31.34 1.77-47.24-2.05-21.28-8.15-41.21-18.06-59.99-14.1-26.72-34.11-48.13-59.85-63.94-20.95-12.87-43.7-20.66-68.27-23.32-38.12-4.13-73.47 4.1-105.87 24.07-22.67 13.97-40.7 32.88-54.47 55.88-6.84 11.41-12.35 23.42-16.06 36.01-3.61 12.26-6.31 24.88-6.81 37.85-.89 23.08 1.53 45.57 9.72 67.36 5.97 15.87 14.25 30.36 24.25 43.96.65.88 1.39 2.27 2.66 1.69 1.76-.8.14-3.18 1.57-4.31-.19 6.67.43 13.3 1.42 20.32-38.28-37.13-60.31-103.75-40.75-167.44 22.84-74.37 86.75-122.63 163.25-124.35 73.11-1.64 140.46 44.44 165.67 113.7 24.38 66.97 4.07 136.96-37.38 178.35.59-5.52 1.13-10.6 1.67-15.69z" fill="#bc1128"/><path d="m241.57 184.17c-1.6-4.09-3.38-8.11-4.76-12.27-3.04-9.17 1.53-18.73 10.65-21.73 34.1-11.2 68.27-11.28 102.37 0 9.17 3.03 13.72 12.45 10.73 21.66-1.25 3.86-2.93 7.58-4.41 11.36-1.86.17-2.2 1.81-2.8 3.07-6.54 13.88-16.78 14.88-28.43 13.29-17.35-2.38-34.72-2.64-52.09-.08-11.17 1.65-22.19.94-28.06-11.9-.59-1.31-1.23-3.13-3.2-3.4z" fill="#fbfbfb"/><path d="m399.49 344.42c-4.73 10.96-16.72 17.53-27.05 14.71-7.4-2.03-12.02-6.91-13.54-14.41-1.66-8.2-1.29-16.06 5.18-22.44.34-.51.67-1.02 1.01-1.53 0 0-.02.01-.02.01 5.33-.87 10.63-.92 15.61 1.46 3.21 1.54 6.39 3.21 9.37 5.15 6.13 3.97 10.94 8.8 9.44 17.05z" fill="#0a0a0c"/><path d="m235.47 322.75c6.95 10.23 6.55 23.43-.94 30.94-7.34 7.37-18.81 8.16-26.93 1.5-3.74-3.07-7.37-6.43-9.35-11.07 1.02-4.63.74-9.8 5.13-13.09 8.93-6.68 18.01-12.96 30.14-10.27 0 0-.02-.02-.02-.02.04.64.03-.7.63-.62 0 0 .33 1.6.33 1.6.33.34.67.69 1.01 1.03z" fill="#0a0a0c"/><path d="m372.7 209.81c-3.74-1.33-5.68-4.78-8.36-7.31-1.86-1.76.13-3.35 1.34-4.48 7.03-6.51 15.56-9.58 24.81-7.58 18.04 3.91 28.38 25.08 16.89 41.82-1.28 1.87-2.95 3.48-4.56 5.1-2.09 2.1-5.99 4.96-7.21 4.06-2.63-1.94-3.96-5.73-5.58-8.87-.24-.47.78-1.58 1.22-2.4l.06.07c1.01.12 1.86-.06 2.17-1.21l.12.27s-.28.11-.28.11c.39-.46.79-.92 1.18-1.37 3.45-4.1 6.06-8.53 4.52-14.17-1.53-5.62-5.14-9.53-10.83-10.76-6.56-1.44-11.69 1.3-15.49 6.72z" fill="#313131"/><path d="m246.85 327.56c-.63-1.33-1.25-2.65-1.88-3.98-2.88-6.05-2.88-6.35 4.12-6.23 17.37.29 32.44 6.57 45.35 18.15 4.56 4.09 5.17 4 9.65-.14 13.72-12.7 29.95-18.71 48.65-18.23 3.59.09 3.91 1.03 1.99 3.83-1.28 1.86-2.08 4.05-3.09 6.09-2.44-.44-4.87-.81-7.2.48-14.28-.21-26.79 4.8-38.07 13.16-7.24 5.36-7.14 5.47-14.21.18-1.17-.88-2.43-1.64-3.64-2.45-2.28-1.93-4.9-3.19-7.77-3.95-7.06-4.12-14.7-6.28-22.83-6.81-3.68-.03-7.37-.06-11.07-.1z" fill="#bc1128"/><path d="m206.98 231.6c-.77 1.79-1.44 3.62-2.32 5.35-3.25 6.44-4.03 6.58-9.36 1.92-8.24-7.21-11.51-19.51-7.51-29.86 3.64-9.39 13.17-17.34 25-17.14 7.46.12 13.63 2.2 19.11 7.04 1.83 1.61 2.29 2.56 0 4.33-2.61 2.01-4.13 5.51-8.1 5.54-3.96-3.05-8.15-5.39-13.41-4.12-5.91 1.42-9.86 5.11-11.07 11.02-1.45 7.04 1.73 12.23 7.66 15.92z" fill="#2f2f2f"/><path d="m372.7 209.81c3.79-5.42 8.93-8.16 15.5-6.74 5.7 1.23 9.3 5.14 10.83 10.76 1.54 5.64-1.07 10.07-4.52 14.17-.4.46-.79.92-1.18 1.37 0 0 .28-.11.28-.11s-.12-.27-.12-.27c-.85.18-1.72.31-2.17 1.21l-.06-.07c-1.17-.03-2.54 1.29-3.48-.34-4.21-7.27-10.45-13.01-15.08-19.98z" fill="#f5f5f5"/><path d="m206.98 231.6c-5.93-3.69-9.12-8.87-7.66-15.93 1.22-5.91 5.17-9.59 11.07-11.02 5.27-1.27 9.46 1.08 13.41 4.12.79 1.06.76 1.97-.22 2.98-5.66 5.82-10.51 12.29-14.96 19.07-.28.44-1.08.53-1.64.78z" fill="#f5f5f5"/><path d="m404.52 361.92c0-2.2-.85-3.89-2.93-4.83 1.67-2.76 3.34-5.53 5.03-8.32 12.39 11.04 15.02 41.23 5.67 63.67-1.47-1.12-.88-2.72-.96-4.17 4.12-15.13 2.13-29.55-4.94-43.4-.32-.62-.63-1.25-.95-1.87l-.02-.02c-.32-.34-.64-.67-.97-1.01z" fill="#bc1128"/><path d="m233.51 320.76c-12.13-2.69-21.21 3.6-30.14 10.27-4.39 3.28-4.11 8.45-5.13 13.09-2.61-6.07-2.07-10.19 2.49-14.46 6.4-5.98 13.87-10.24 22.4-12.35 4.04-.99 7.73-.12 10.38 3.45z" fill="#0a0a0c"/><path d="m399.49 344.42c1.5-8.25-3.31-13.08-9.43-17.05-2.98-1.94-6.16-3.61-9.37-5.15-4.99-2.38-10.28-2.33-15.61-1.46 2.48-3.95 6.35-4.39 10.26-3.44 8.53 2.08 16 6.39 22.41 12.33 4.61 4.27 5.09 10.26 1.74 14.77z" fill="#0a0a0c"/><path d="m365.1 320.74c-.34.51-.67 1.02-1.01 1.53-.12-.8.16-1.35 1.01-1.53z" fill="#646464"/><path d="m235.47 322.75c-.34-.34-.68-.69-1.01-1.03.33.34.67.69 1.01 1.03z" fill="#646464"/><path d="m336.34 292.67c-14.3-.37-24.79-11.51-24.33-25.82.38-11.76 11.17-23.88 21.01-23.61 18.41.52 29.2 9.94 28.83 25.18-.36 13.93-11.59 24.61-25.51 24.25zm-11.53-32.76c-3.94.14-6.92 3.31-6.61 6.48.34 3.55 3.06 5.4 5.9 6.24 2.58.76 6.68-3.82 6.39-6.73-.36-3.74-2.56-5.79-5.68-5.99z" fill="#313131"/><path d="m260.85 293.4c-13.92-.08-24.61-11.04-24.53-25.14.07-11.47 10.34-23.54 19.32-24.08 9.11-.55 17.27.31 23.84 7.39 4.58 4.94 6.7 10.82 6.64 17.4-.11 13.88-11.23 24.51-25.27 24.43zm6.11-26.84c.06 2.9 3.86 7.14 6.24 6.96 2.65-.2 6.24-4.45 5.93-7.33-.37-3.51-2.51-5.6-6.02-5.84-3.22-.21-6.22 2.99-6.15 6.21z" fill="#313131"/><path d="m293.39 284.7c5.1-.42 12.52-.57 16.31 3.08 2.77 2.68 4.16 5.91 3.24 9.71-.93 3.8-4.33 4.55-7.55 5.23-1.57.33-3.22.31-4.83.44-1.12-.01-2.24-.02-3.36-.04-11.85.23-13.71-5.45-11.51-11.43 1.28-3.51 3.99-5.91 7.7-6.99" fill="#313131"/><g fill="#0a0a0c"><path d="m297.19 303.13c1.12.01 2.24.02 3.36.04-.82 5.28-.82 5.28 8.87 6.31-6.61 1.49-13.27.22-20.24.49 2.23-3.35 11.34 2.35 8.01-6.84z"/><path d="m391.33 230.21c.45-.89 1.32-1.02 2.17-1.21-.31 1.15-1.16 1.33-2.17 1.21z"/><path d="m393.33 229.38c.39-.46.79-.92 1.18-1.37-.39.46-.78.91-1.18 1.37z"/></g><path d="m406.39 364.87c-.83-.36-.94-1.09-.95-1.87.31.63.63 1.25.95 1.87z" fill="#ca161a"/><path d="m405.42 362.98c-.32-.34-.64-.67-.97-1.01.32.34.64.67.97 1.01z" fill="#ca161a"/><path d="m324.81 259.91c3.12.2 5.32 2.25 5.68 5.98.28 2.92-3.81 7.5-6.39 6.73-2.84-.84-5.56-2.69-5.9-6.24-.31-3.16 2.67-6.33 6.61-6.47z" fill="#f5f5f5"/><path d="m266.96 266.56c-.06-3.22 2.93-6.42 6.15-6.21 3.51.23 5.65 2.32 6.02 5.84.3 2.89-3.28 7.13-5.93 7.33-2.38.18-6.18-4.06-6.24-6.96z" fill="#f5f5f5"/><path d="m348.41 444.56.41.22-.18.19z" fill="#fd1416"/><path d="m281.8 413.46c-1.99-1.23-3.64-2.72-4.94-4.48s-1.34-3.95-.12-6.56c1.23-2.76 2.99-4.33 5.29-4.71s4.6.04 6.9 1.26c3.68 1.84 7.9 3.18 12.65 4.03 4.75.84 9.28.96 13.57.34 4.29-.61 8.01-2.15 11.15-4.6s4.95-6.13 5.41-11.04c.31-2.76 0-5.56-.92-8.4s-2.57-5.4-4.95-7.7-5.67-4.18-9.89-5.64-9.47-2.19-15.75-2.19c-10.58 0-18.51 2.03-23.8 6.1-5.29 4.06-7.94 10.85-7.94 20.35v59.8c0 2.76-.57 5.17-1.72 7.25-1.15 2.07-3.26 3.11-6.33 3.11-3.22 0-5.48-1.04-6.79-3.11-1.3-2.07-1.96-4.49-1.96-7.25v-65.55c0-6.59 1.46-12.27 4.37-17.02s6.67-8.59 11.27-11.5 9.77-5.06 15.52-6.44 11.54-2.07 17.37-2.07c6.13 0 12.15.69 18.05 2.07s11.16 3.64 15.75 6.78c4.6 3.14 8.32 7.13 11.16 11.96s4.18 10.69 4.03 17.59c-.16 6.59-1.5 12.08-4.03 16.44-2.53 4.37-5.79 7.86-9.77 10.47-3.99 2.61-8.43 4.45-13.34 5.52s-9.85 1.57-14.83 1.5c-4.98-.08-9.7-.69-14.14-1.84-4.45-1.13-8.2-2.63-11.27-4.47z" fill="#fff"/><path d="m267.25 157.81h63.12v20.53h-63.12z" fill="#bc1128"/><path d="m274.22 157.81h48.78v20.53h-48.78z" fill="#bc1128" transform="matrix(0 1 -1 0 466.6854 -130.5361)"/></svg>