<svg enable-background="new 0 0 612 792" viewBox="0 0 612 792" xmlns="http://www.w3.org/2000/svg"><path d="m306.11 139.75c116.05.04 216.82 69.11 242.62 165.55 12.56 46.95 4.38 91.45-17.86 134.86-20.53 40.09-48.39 76.28-78.37 111.52-38.37 45.12-82.42 85.82-128.73 124.87-12.51 10.55-22.75 10.57-35.16.24-43.01-35.8-83.89-73.32-119.97-114.39-33.7-38.35-65.41-77.89-87.52-122.39-14.87-29.93-26.13-60.76-23.73-93.66 6.66-91.12 59.31-155.14 157.03-191.45 29.46-10.94 59.86-15.16 91.69-15.15z" fill="#2ba8e1"/><path d="m201.57 628.35c-7.34 2.96-14.3 6.45-20.74 10.7-24.39 16.11-24.07 37.86.66 53.55 18.45 11.71 39.57 17.98 61.67 21.92 44.2 7.89 88.43 7.67 132.4-1.34 22.38-4.59 43.87-11.23 61.01-25.19 17.29-14.09 17.13-30.67-.03-44.92-7.21-5.98-15.58-10.47-24.6-14.08-3.28-1.31-3.8-2.25-1.14-4.75 11.03-10.38 21.88-20.91 32.64-31.49 2.14-2.11 3.88-2.63 7.21-1.77 32.34 8.37 63.21 19.26 89.81 37.64 8.4 5.8 15.81 12.4 21.83 20.1 16.31 20.89 15.77 43.55-1.63 63.95-13.83 16.23-32.6 27.25-53.03 36.4-34.58 15.49-71.73 24.19-109.99 29.61-61.61 8.72-123.32 8.66-184.88-.23-41.67-6.02-81.97-15.93-118.81-34.36-12.63-6.31-24.26-13.77-34.39-22.88-28.87-25.95-28.78-57.55.34-83.31 20.43-18.08 45.8-29.38 72.72-38.41 9.39-3.15 19.18-5.41 28.62-8.46 3.6-1.16 5.45-.24 7.69 1.98 9.92 9.83 20.03 19.53 30.07 29.28.64 2.09 6.16 2.65 2.57 6.06z" fill="#2ba8e1"/><path d="m201.57 655.5c2.11-2.95-2.51-3.79-2.58-6.06 1.28 1.89 8.14 2.04 2.58 6.06z" fill="#6f6f6f"/><path d="m305.87 281.22c46.26-.14 83.85 31.9 84 71.59.15 39.83-37.68 72.36-83.99 72.23-46.22-.13-83.68-32.34-83.7-71.96-.02-39.69 37.29-71.72 83.69-71.86z" fill="#fefefe"/><path d="m58.8 353.6c.19-26.58 5.5-52.21 15.87-77.11 3.16-7.59 1.14-14.27-3.76-20.85-10.45-14.03-18.85-28.74-21.85-45.53-7.47-41.84 30.44-78.67 79.84-77.46 15.53.38 30.01 3.79 43.44 10.08 19.77 9.25 39.42 10.47 61.38 5.03 47.51-11.76 95.65-11.01 143.43-.29 18.01 4.04 34.81 2.38 51.07-4.96 15.76-7.11 32.21-12 50.32-11.86 39.58.32 86.16 29.44 76.66 78.08-3.13 15.99-9.37 30.73-21.09 43.56-4.02 4.4-4.45 8.75-1.89 14.01 17.95 36.81 22.58 75.23 18.05 114.64-7.06 61.47-44.32 104.7-109.81 129.27-65.97 24.75-134.8 29.45-205.34 17.49-34.64-5.87-67.1-16.15-96.71-32.89-43.01-24.3-67.46-58.65-75.2-101.88-2.34-12.98-2.99-26.2-4.41-39.33zm28.29-4.39c.25 28.01 3.44 51.6 14.62 73.97 16.32 32.64 46.45 52.96 83.16 66.51 47.81 17.64 98.08 23.85 149.84 19.29 35.35-3.11 69.98-9.07 102.04-23.29 36.05-15.99 64.68-37.9 76.97-72.15 17.34-48.29 14.3-96.03-9.19-142.33-19.48-38.38-49.14-69.45-94-88.05-46.85-19.43-96.27-24.2-147.29-16.87-41.9 6.02-79.89 19.62-110.11 46.08-44.6 39.03-65.67 86.41-66.04 136.84z"/><path d="m87.09 349.21c.37-50.43 21.44-97.8 66.04-136.85 30.22-26.45 68.2-40.05 110.11-46.08 51.02-7.33 100.44-2.56 147.29 16.87 44.87 18.6 74.52 49.67 94 88.05 23.49 46.3 26.53 94.04 9.19 142.33-12.3 34.24-40.92 56.16-76.97 72.15-32.05 14.22-66.69 20.18-102.04 23.29-51.76 4.56-102.03-1.65-149.84-19.29-36.71-13.54-66.84-33.87-83.16-66.51-11.18-22.36-14.37-45.96-14.62-73.96zm318.7-62.07c-5.11.32-10.24.46-15.32 1-39.21 4.15-62.53 37.35-45.71 67.85 15.62 28.34 39.7 51.81 67.78 71.71 15.62 11.07 34.74 12.47 54.29 7.79 32.32-7.74 43.92-36.07 41.82-60.83-2.15-25.39-16.76-44.97-38.53-61.42-18.56-14.02-38.47-25.21-64.33-26.1zm-201.49 3.17c-9.64 2.03-19.65 3.24-28.86 6.25-21.38 7-37.66 20.11-51.75 35.06-16.37 17.36-22.15 37.56-18.24 59.58 6.71 37.78 52.65 54.94 89.56 33.47 5.41-3.15 10.79-6.79 14.84-11.13 16.16-17.3 32.53-34.52 47.33-52.66 8.52-10.45 9.89-23.13 5.37-35.63-7.87-21.74-28.68-33.73-58.25-34.94zm99.94 183.74c21.97-.54 41.4-5.92 56.09-20.63 4.67-4.67 4.6-9.08-.23-11.96-4.98-2.97-9.31-1.89-13.45 1.95-21.91 20.31-62.68 20.26-84.46.12-1.57-1.45-3.93-3.42-5.74-3.29-3.29.23-7.34 1.14-9.47 3.07-3.53 3.2-1.81 7.03 1.35 10.14 14.81 14.56 34.18 20.05 55.91 20.6z" fill="#fff"/><path d="m405.79 287.14c25.86.88 45.77 12.08 64.33 26.1 21.77 16.45 36.38 36.03 38.53 61.42 2.09 24.76-9.51 53.08-41.82 60.83-19.55 4.68-38.67 3.28-54.29-7.79-28.08-19.9-52.16-43.37-67.78-71.71-16.81-30.51 6.5-63.7 45.71-67.85 5.07-.54 10.21-.67 15.32-1zm-36.04 49.86c.11 11.72 11.58 21.33 25.47 21.35 14.14.02 26.14-10.03 25.98-21.74-.17-11.78-12.27-21.52-26.44-21.28-14.02.22-25.12 9.84-25.01 21.67z"/><path d="m204.3 290.31c29.57 1.21 50.38 13.2 58.25 34.94 4.53 12.5 3.15 25.19-5.37 35.63-14.8 18.14-31.17 35.36-47.33 52.66-4.05 4.34-9.43 7.98-14.84 11.13-36.91 21.47-82.85 4.31-89.56-33.47-3.91-22.02 1.87-42.21 18.24-59.58 14.09-14.95 30.38-28.06 51.75-35.06 9.21-3.01 19.22-4.22 28.86-6.25zm-17.3 46.13c-.3 11.73 10.66 21.42 24.77 21.89 14.02.47 26.12-9.24 26.4-21.19.28-11.71-10.91-21.53-24.86-21.81-14.47-.29-26 8.96-26.31 21.11z"/><path d="m304.24 474.05c-21.73-.55-41.1-6.04-55.92-20.6-3.16-3.11-4.88-6.93-1.35-10.14 2.13-1.93 6.17-2.84 9.47-3.07 1.81-.13 4.17 1.84 5.74 3.29 21.78 20.14 62.55 20.19 84.46-.12 4.14-3.84 8.47-4.92 13.45-1.95 4.83 2.88 4.9 7.29.23 11.96-14.69 14.7-34.12 20.09-56.08 20.63z"/><path d="m369.75 337c-.11-11.82 10.99-21.45 25.01-21.68 14.17-.23 26.27 9.51 26.44 21.28.17 11.72-11.83 21.76-25.98 21.74-13.89-.01-25.37-9.63-25.47-21.34z" fill="#fff"/><path d="m187 336.44c.31-12.15 11.85-21.41 26.32-21.11 13.94.28 25.13 10.1 24.86 21.81-.28 11.95-12.38 21.66-26.4 21.19-14.13-.47-25.08-10.15-24.78-21.89z" fill="#fff"/><path d="m179.07 121.88c7.29-10.89 16.57-20.69 27.25-29.25-9.14-8.05-18.18-16.01-27.6-24.3 27.5-37.59 66.49-59.93 118.63-62.41 58.32-2.77 102.78 18.95 135.03 60.14-9.76 8.32-19.16 16.32-28.79 24.52 11.37 8.82 20.88 18.43 28.69 29.61-7.07 6-14.4 11.73-20.99 18.01-4.34 4.13-8.92 5.96-15.41 5.47-3.76-.29-6.93-.83-10.15-2.69-20.14-11.62-42.29-18.84-66.52-20.54-36.21-2.54-69.87 3.89-99.86 22.23-.85.52-2.07.8-3.13.83-11.8.38-11.85.39-20.27-6.82-5.67-4.83-11.18-9.79-16.88-14.8zm163.28-52.52c0-5.71 0-11.06 0-16.67-8.7 0-17.13 0-25.9 0 0-8.37 0-16.48 0-24.58-7.46 0-14.58 0-22.05 0v24.73c-8.78 0-17.2 0-25.75 0v16.58h25.85v24.74h22.12c0-8.27 0-16.44 0-24.8z"/><path d="m342.35 69.36c-8.56 0-16.92 0-25.72 0v24.8c-7.56 0-14.67 0-22.12 0 0-8.24 0-16.35 0-24.74-8.76 0-17.19 0-25.85 0 0-5.62 0-10.96 0-16.58h25.75c0-8.37 0-16.48 0-24.73h22.05v24.58h25.9c-.01 5.61-.01 10.96-.01 16.67z" fill="#fff"/><path d="m103 230.15c-18.26-9.72-28.05-23.4-23.59-42 3.74-15.58 15.9-25.3 34.07-29.05 16.2-3.35 29.1 2.84 41.28 10.87 2.42 2.79 2.33 5.2-.69 7.86-17.42 15.36-32.35 32.4-46.02 50.3-.87 1.13-3.33 1.36-5.05 2.02z" fill="#f5f5f5"/><path d="m505.84 226.95c18.26-9.72 28.05-23.4 23.59-42-3.74-15.58-15.9-25.3-34.07-29.05-16.2-3.35-29.1 2.84-41.28 10.87-2.42 2.79-2.33 5.2.69 7.86 17.42 15.36 32.35 32.4 46.02 50.3.86 1.13 3.33 1.37 5.05 2.02z" fill="#f5f5f5"/><path d="m305.4 391.26c2.06-3.04 4.72-5.27 8.08-6.62 10.39-4.17 21.38 2.21 23.66 12.54 1.2 5.42.18 10.49-2.77 15.2-2.35 3.74-5.24 7.03-8.34 10.15-5.13 5.16-10.71 9.78-16.43 14.25-1.14.89-2.29 1.77-3.45 2.65-.55.42-.96.42-1.49.02-6.26-4.76-12.4-9.67-18.08-15.13-3.44-3.3-6.7-6.76-9.37-10.73-1.65-2.46-3.06-5.04-3.6-7.98-1.26-6.85.23-12.91 5.48-17.73 7.72-7.09 20.06-5.65 26.02 2.98.1.12.18.24.29.4z"/><path d="m304.57 433.04v27.88" fill="none" stroke="#000" stroke-miterlimit="10" stroke-width="4"/></svg>