<svg id="Layer_1" data-name="Layer 1" xmlns="http://www.w3.org/2000/svg" xmlns:xlink="http://www.w3.org/1999/xlink" viewBox="0 0 385.64 466.63"><defs><style>.cls-1{fill:url(#linear-gradient);}.cls-2{fill:#fff;}.cls-3{fill:#6acec2;}.cls-4{fill:#7bd3ff;}</style><linearGradient id="linear-gradient" x1="193.47" y1="360.62" x2="193.47" gradientUnits="userSpaceOnUse"><stop offset="0.53" stop-color="#6acec2"/><stop offset="0.84" stop-color="#7bd3ff"/></linearGradient></defs><path class="cls-1" d="M328.72,93.49c12.5-14.52,12.71-35.11,2.9-48C319.49,29.54,299.81,25.53,283,31.12A146.26,146.26,0,0,0,243.17,8.7C196.22-8.74,142.59.7,103.84,31.08,87,25.56,67.42,29.58,55.33,45.47,45.5,58.39,45.73,79,58.27,93.54a145.93,145.93,0,0,0-9.43,51c0,.16,0,.29,0,.44s0,.29,0,.45a111,111,0,0,0,4,29.09,8.57,8.57,0,0,0,.26,1.88c.37,1.45.8,2.89,1.26,4.33,3.81,12.41,9.37,24.49,15,36.08,16,32.89,37,63.36,61,90.88q11.77,13.47,24.61,26,6.7,6.54,13.68,12.82c4.45,4,9.1,9.1,14.51,11.77a22.12,22.12,0,0,0,17.23,1.19c6-2.22,10.61-7,15.3-11.27q14.23-12.79,27.44-26.71c27.08-28.57,50.89-60.63,69.22-95.51a336.07,336.07,0,0,0,15.28-33.25c1.23-3.13,2.48-6.3,3.59-9.52a58.57,58.57,0,0,0,2.26-6.78c.06-.23.06-.44.1-.66a111.94,111.94,0,0,0,4.39-30.31c0-.16,0-.29,0-.45s0-.28,0-.44A147.55,147.55,0,0,0,328.72,93.49Z"/><path class="cls-2" d="M322.88,145.39a95.32,95.32,0,0,1-3.59,25.44,9,9,0,0,0-.56,1.49c-.48,1.84-1.06,3.66-1.67,5.47s-1.38,3.63-2.15,5.4l-.05.12q-1.14,2.49-2.4,4.93A125.33,125.33,0,0,1,306,199.33c-1.36,2.09-2.79,4.14-4.27,6.14l-.88,1.17-.44.56c-.89,1.11-1.78,2.21-2.7,3.3a127,127,0,0,1-10.38,10.76,130,130,0,0,1-28.15,19.46l-.15.08c-1.1.56-2.21,1.1-3.33,1.63-1.48.7-3,1.37-4.48,2-17,7.09-36.75,10.73-55.79,11.57-1.19,0-2.38.05-3.56,0-17.58-.72-35-3.64-51.53-9.74-.48-.18-1-.39-1.45-.57-1.62-.65-3.26-1.28-4.86-2l-1.5-.67a131.57,131.57,0,0,1-15.16-8.16q-1.17-.72-2.31-1.47a127.74,127.74,0,0,1-12.4-9.27c-1.44-1.25-2.9-2.49-4.29-3.81l-.32-.3q-3.16-3-6.11-6.26c-1.88-2.06-3.68-4.19-5.43-6.36l-.67-.86c-.24-.32-.75-1-.83-1.11-.73-1-1.45-2-2.15-3A128.81,128.81,0,0,1,72.23,184,98.08,98.08,0,0,1,64,145.39c0-.15,0-.29-.05-.44s.05-.29.05-.45C64.21,91,98.13,41.31,148.71,23A129.55,129.55,0,0,1,293.34,62.13c19.19,23,29.43,52.52,29.54,82.37,0,.16,0,.29.05.45S322.88,145.24,322.88,145.39Z"/><path class="cls-3" d="M24.71,465.43a43.8,43.8,0,0,1-4.87.8,54.12,54.12,0,0,1-6.57.4,30.39,30.39,0,0,1-5.72-.47,10.49,10.49,0,0,1-4.16-1.67,7.29,7.29,0,0,1-2.54-3.36A15.5,15.5,0,0,1,0,455.49V392.25a5.73,5.73,0,0,1,1.62-4.36,11.65,11.65,0,0,1,4.45-2.48,55.28,55.28,0,0,1,11-2.36,103.77,103.77,0,0,1,12.35-.73q19.49,0,29.8,7.92t10.3,21.48a30.82,30.82,0,0,1-2.19,11.88,24.6,24.6,0,0,1-6.49,9.13,29.66,29.66,0,0,1-10.87,5.91,50.24,50.24,0,0,1-15.18,2.08h-10Zm7.34-43.1c4,0,7-.87,9.11-2.62s3.18-4.41,3.18-8A9.62,9.62,0,0,0,41,403.87q-3.32-2.76-9.67-2.76c-1.51,0-2.76,0-3.74.07a25,25,0,0,0-3,.34v20.81Z"/><path class="cls-3" d="M103.08,387a30.5,30.5,0,0,1,7.27-2.55,40.44,40.44,0,0,1,9.82-1.21,37.14,37.14,0,0,1,12.49,1.94q5.44,1.95,7,6.11,2.55,7,5.51,16.25t5.93,19.13q3,9.87,5.79,19.47t4.94,17a11.56,11.56,0,0,1-5.08,3,25.31,25.31,0,0,1-8.05,1.15,25.83,25.83,0,0,1-5.72-.54,10.43,10.43,0,0,1-3.81-1.61,8.06,8.06,0,0,1-2.4-2.82,23.8,23.8,0,0,1-1.62-4l-2.55-9.26H107c-.75,2.68-1.5,5.46-2.25,8.32s-1.51,5.64-2.26,8.32a38.39,38.39,0,0,1-4.17,1.15,25.88,25.88,0,0,1-5.29.47q-7.22,0-10.67-2.35a7.48,7.48,0,0,1-3.46-6.52,12.83,12.83,0,0,1,.57-3.75c.37-1.26.8-2.73,1.27-4.44q1-3.62,2.75-9t3.89-11.61q2.11-6.25,4.52-12.83t4.51-12.42q2.13-5.83,3.89-10.4T103.08,387Zm17,17.32q-2,5.64-4.45,12.55t-4.45,14h17.51q-2-7.25-4-14.16t-3.75-12.42Z"/><path class="cls-3" d="M205.17,465.43a43.39,43.39,0,0,1-4.87.8,54.08,54.08,0,0,1-6.56.4,30.24,30.24,0,0,1-5.72-.47,10.47,10.47,0,0,1-4.17-1.67,7.29,7.29,0,0,1-2.54-3.36,15.5,15.5,0,0,1-.85-5.64V392.25a5.7,5.7,0,0,1,1.63-4.36,11.6,11.6,0,0,1,4.44-2.48,55.28,55.28,0,0,1,10.95-2.36,103.77,103.77,0,0,1,12.35-.73q19.5,0,29.8,7.92t10.31,21.48a30.82,30.82,0,0,1-2.19,11.88,24.51,24.51,0,0,1-6.5,9.13,29.58,29.58,0,0,1-10.87,5.91,50.24,50.24,0,0,1-15.18,2.08h-10Zm7.35-43.1q5.92,0,9.11-2.62t3.17-8a9.65,9.65,0,0,0-3.31-7.85q-3.33-2.76-9.68-2.76c-1.51,0-2.75,0-3.74.07a25.24,25.24,0,0,0-3,.34v20.81Z"/><path class="cls-3" d="M283.54,387a30.44,30.44,0,0,1,7.28-2.55,40.36,40.36,0,0,1,9.81-1.21,37.2,37.2,0,0,1,12.5,1.94q5.43,1.95,7,6.11,2.53,7,5.5,16.25t5.94,19.13q3,9.87,5.78,19.47t5,17a11.6,11.6,0,0,1-5.09,3,25.31,25.31,0,0,1-8.05,1.15,25.67,25.67,0,0,1-5.71-.54,10.41,10.41,0,0,1-3.82-1.61,8.06,8.06,0,0,1-2.4-2.82,23.8,23.8,0,0,1-1.62-4l-2.54-9.26H287.5c-.76,2.68-1.51,5.46-2.26,8.32s-1.51,5.64-2.26,8.32a38.39,38.39,0,0,1-4.17,1.15,25.81,25.81,0,0,1-5.29.47q-7.2,0-10.66-2.35a7.45,7.45,0,0,1-3.46-6.52,13.16,13.16,0,0,1,.56-3.75c.38-1.26.8-2.73,1.27-4.44q1-3.62,2.76-9t3.88-11.61q2.11-6.25,4.52-12.83t4.52-12.42q2.11-5.83,3.88-10.4C282,391,282.88,388.63,283.54,387Zm16.95,17.32q-2,5.64-4.45,12.55t-4.45,14H309.1q-2-7.25-4-14.16t-3.74-12.42Z"/><path class="cls-3" d="M385.64,465.43a43.8,43.8,0,0,1-4.87.8,54.24,54.24,0,0,1-6.57.4,30.31,30.31,0,0,1-5.72-.47,10.43,10.43,0,0,1-4.16-1.67,7.37,7.37,0,0,1-2.55-3.36,15.74,15.74,0,0,1-.84-5.64V384.6c1-.18,2.68-.42,4.94-.74a47.79,47.79,0,0,1,6.49-.47,31.09,31.09,0,0,1,5.72.47,10.48,10.48,0,0,1,4.17,1.68,7.24,7.24,0,0,1,2.54,3.36,15.5,15.5,0,0,1,.85,5.64Z"/><path class="cls-4" d="M201.26,121.33a41.06,41.06,0,0,1-6.45.71,40.17,40.17,0,0,1-12.65-1.7,3.83,3.83,0,0,0-4.72,2.54c-.56,2.19.69,3.72,2.48,4.81a23.19,23.19,0,0,0,6,2.22,31.55,31.55,0,0,0,14.17.38,26.82,26.82,0,0,0,4.24-1.25,11.32,11.32,0,0,0,4.53-2.71,3.52,3.52,0,0,0-.39-5.17C206.34,119.39,203.6,120.88,201.26,121.33Z"/><path class="cls-4" d="M155.3,76.07c-1.82-12.18-15.32-12.7-25.54-11.51-1.3.15-2.54.33-3.71.52C111.2,67.47,90.88,77.25,87.91,94c-1.75,9.86,1.64,18.69,9.4,24.68a29.61,29.61,0,0,0,25.5,5.09,38.52,38.52,0,0,0,14.09-7.75C148.12,106.79,157.56,91.16,155.3,76.07ZM137.22,97.64c-3.29,3.79-8.34,4.8-11.3,2.25s-2.68-7.7.6-11.5,8.34-4.8,11.29-2.25S140.5,93.84,137.22,97.64Z"/><path class="cls-4" d="M299,94c-3-16.79-23.29-26.57-38.14-29-1.16-.19-2.41-.37-3.71-.52-10.22-1.19-23.72-.67-25.54,11.51-2.26,15.09,7.18,30.72,18.4,40a38.6,38.6,0,0,0,14.09,7.75,29.6,29.6,0,0,0,25.5-5.09C297.4,112.73,300.78,103.9,299,94Zm-38,5.85c-2.95,2.55-8,1.54-11.29-2.25s-3.55-9-.6-11.5,8-1.55,11.29,2.25S264,97.34,261,99.89Z"/><path class="cls-2" d="M213,316.14h-8.31v8.32a11.4,11.4,0,0,1-22.79,0v-8.32h-8.31a11.4,11.4,0,0,1,0-22.78h8.31V285a11.4,11.4,0,0,1,22.79,0v8.32H213a11.4,11.4,0,0,1,0,22.78Z"/><path class="cls-4" d="M191.86,81.51a2.31,2.31,0,0,0,3.22,0c5.37-5,15.45-3,16.27,5.34.67,6.81-5.74,11.48-10.81,14.66-1.68,1-3.53,2.21-5.39,3.23a3.5,3.5,0,0,1-3.35,0c-1.87-1-3.72-2.18-5.39-3.23-5.08-3.18-11.48-7.85-10.82-14.66C176.41,78.48,186.49,76.47,191.86,81.51Z"/></svg>