<svg enable-background="new 0 0 612 792" viewBox="0 0 612 792" xmlns="http://www.w3.org/2000/svg"><path d="m365.4 575.84c2.38-4.81 4.76-9.63 9.25-12.95 27.91 3.26 55.75 6.9 83.02 13.89 25.53 6.55 50.61 14.31 72.47 29.77 9.34 6.61 17.57 14.56 19.38 26.45 2.2 14.49-6.25 24.28-16.73 32.41-17.14 13.3-37.08 21.06-57.64 26.92-71.3 20.34-144.15 24.2-217.76 19.62-40.26-2.5-80.02-8.01-118.73-19.61-20.04-6-39.58-13.31-56.57-26.09-3.43-2.58-6.57-5.41-9.41-8.61-11.75-13.28-11.95-27.88-.04-41.13 13.01-14.48 30.26-22.23 48.02-28.84 35.19-13.09 71.9-19.35 109.02-23.59 3.12-.36 6.24-.76 9.34-1.14 3.51 4 7.33 7.79 9.25 12.94-24.47 1.87-48.57 5.92-72.17 12.68-17.76 5.09-35.2 11-50.2 22.27-19.76 14.84-19.53 32.82.48 47.27.55.39 1.14.72 1.7 1.1 20.1 13.7 42.98 20.45 66.32 25.36 67.63 14.23 135.65 14.85 203.82 4.05 26.27-4.16 51.97-10.48 75.95-22.5 7.49-3.75 14.42-8.28 20.3-14.29 10.76-10.99 10.76-24.29-.08-35.26-5.24-5.3-11.24-9.66-17.91-13.03-34.95-17.58-72.65-24.13-111.08-27.69z" fill="#bc1128" stroke="#0a0a0a" stroke-miterlimit="10" stroke-width="2"/><path d="m175.85 421.16c2.63-4.88 7.33-12.13 15.31-18.62 4.96-4.03 9.22-6.17 13.62-8.36 5.98-2.96 18.67-9.1 36.27-10.24 6.01-.39 14.06-.91 24.08 1.73 15.62 4.13 31.71 14.82 34.93 19.37.28.4 1.98 2.91 4.95 3.95 1.44.51 2.39.39 2.73.34 2.09-.34 3.4-2.1 3.84-2.68.84-1.09 4.06-3.59 10.49-8.6 4.25-3.31 7.95-5.06 11.75-6.86 2.36-1.12 7.06-3.19 13.36-4.89 11-2.96 19.81-2.86 22.9-2.76 3.61.12 6.28.47 8.26.74 6.46.87 18.22 2.55 31.15 9.49 4.82 2.59 11.48 6.16 17.97 13.22 3.78 4.12 6.66 8.75 12.42 18.01 3.11 5.01 4.7 7.58 5.98 10.54 2.24 5.16 3.68 10.82 4.33 18.87 1.12 13.7 2.38 29.12-4.6 46.22-4.53 11.1-10.86 18.2-23.52 32.39-8.25 9.25-9.11 8.73-23.52 23.31-20.82 21.06-19.75 22.85-30.33 31.36-8.78 7.06-19.56 15.54-35.9 19.81-12.03 3.14-22.1 2.7-31.77 2.27-9.2-.41-17.66-.85-27.85-4.75-7.53-2.88-12.46-6.28-19.39-11.14-10.27-7.2-16.95-13.75-26.2-22.9-11.43-11.31-11.74-12.96-23.31-24.14-10.08-9.74-10.03-8.67-16.71-15.47-11.32-11.53-18.63-18.98-23.31-30.95-3.64-9.32-4.04-17.15-4.54-27.03-.49-9.75-.93-18.43 2.48-28.88 1.74-5.34 5.52-14.3 14.13-23.35z" fill="#bc1128"/><ellipse cx="311.75" cy="641.78" fill="#fd2023" rx="31.52" ry="16.65" stroke="#020202" stroke-miterlimit="10" stroke-width="5"/><g fill="#fff"><path d="m214.35 492.07c-.95-.58-1.73-1.29-2.35-2.13s-.64-1.88-.05-3.12c.58-1.31 1.42-2.06 2.51-2.24s2.19.02 3.28.6c1.75.88 3.75 1.51 6.01 1.91s4.41.46 6.45.16c2.04-.29 3.81-1.02 5.3-2.19 1.49-1.16 2.35-2.91 2.57-5.25.15-1.31 0-2.64-.44-3.99s-1.22-2.57-2.35-3.66-2.7-1.98-4.7-2.68c-2-.69-4.5-1.04-7.49-1.04-5.03 0-8.8.97-11.31 2.9s-3.77 5.16-3.77 9.67v28.42c0 1.31-.27 2.46-.82 3.44s-1.55 1.48-3.01 1.48c-1.53 0-2.61-.49-3.22-1.48-.62-.98-.93-2.13-.93-3.44v-31.13c0-3.13.69-5.83 2.08-8.09 1.38-2.26 3.17-4.08 5.36-5.47 2.19-1.38 4.65-2.41 7.38-3.06 2.73-.66 5.48-.98 8.25-.98 2.91 0 5.78.33 8.58.98 2.8.66 5.3 1.73 7.49 3.22 2.19 1.5 3.95 3.39 5.3 5.68 1.35 2.3 1.99 5.08 1.91 8.36-.07 3.13-.71 5.74-1.91 7.82s-2.75 3.74-4.65 4.97c-1.9 1.24-4.01 2.11-6.34 2.62s-4.68.75-7.05.71-4.61-.33-6.72-.87c-2.12-.53-3.9-1.24-5.36-2.12z"/><path d="m291.97 510.87c0 1.17-.42 2.11-1.26 2.84s-1.77 1.09-2.79 1.09-1.88-.37-2.57-1.09c-.69-.73-.97-1.68-.82-2.84-1.39 1.31-3.24 2.3-5.58 2.95-2.33.66-4.74.98-7.22.98-5.68 0-10.2-1.18-13.56-3.55-3.35-2.37-5.03-5.78-5.03-10.22 0-1.97.45-3.83 1.37-5.58.91-1.75 2.2-3.24 3.88-4.48s3.7-2.22 6.07-2.95 5.01-1.09 7.93-1.09c2.77 0 5.34.4 7.71 1.2s3.88 1.75 4.54 2.84c-.15-1.82-.55-3.28-1.2-4.37-.66-1.09-1.53-1.95-2.62-2.57s-2.42-1.04-3.99-1.26-3.3-.33-5.19-.33c-2.19 0-4.17.26-5.96.76-1.79.51-3.41 1.17-4.87 1.97-1.53.88-2.7 1.09-3.5.66-.8-.44-1.31-.8-1.53-1.09-.88-1.02-1.13-2.09-.77-3.23.36-1.13 1.06-2.02 2.08-2.68 4.01-2.62 8.78-3.94 14.32-3.94 3.79 0 7 .4 9.62 1.2s4.74 1.97 6.34 3.5 2.77 3.41 3.5 5.63 1.09 4.76 1.09 7.6v18.05zm-7.65-9.73c0-1.46-.35-2.64-1.04-3.55s-1.62-1.64-2.79-2.19-2.48-.91-3.94-1.09-2.95-.27-4.48-.27c-1.31 0-2.64.15-3.99.44s-2.57.71-3.66 1.26-1.99 1.22-2.68 2.02-1.04 1.75-1.04 2.84c-.07 1.24.18 2.31.77 3.23.58.91 1.4 1.68 2.46 2.29 1.06.62 2.26 1.08 3.61 1.37s2.75.44 4.21.44c3.57 0 6.56-.62 8.96-1.86s3.61-2.88 3.61-4.93z"/><path d="m315.03 492.07c-.95-.58-1.73-1.29-2.35-2.13s-.64-1.88-.05-3.12c.58-1.31 1.42-2.06 2.51-2.24s2.19.02 3.28.6c1.75.88 3.75 1.51 6.01 1.91s4.41.46 6.45.16c2.04-.29 3.81-1.02 5.3-2.19 1.49-1.16 2.35-2.91 2.57-5.25.14-1.31 0-2.64-.44-3.99s-1.22-2.57-2.35-3.66-2.7-1.98-4.7-2.68c-2.01-.69-4.5-1.04-7.49-1.04-5.03 0-8.8.97-11.31 2.9s-3.77 5.16-3.77 9.67v28.42c0 1.31-.27 2.46-.82 3.44s-1.55 1.48-3.01 1.48c-1.53 0-2.61-.49-3.23-1.48-.62-.98-.93-2.13-.93-3.44v-31.13c0-3.13.69-5.83 2.08-8.09 1.38-2.26 3.17-4.08 5.36-5.47 2.19-1.38 4.65-2.41 7.38-3.06 2.73-.66 5.48-.98 8.25-.98 2.91 0 5.77.33 8.58.98 2.8.66 5.3 1.73 7.49 3.22 2.19 1.5 3.95 3.39 5.3 5.68 1.35 2.3 1.99 5.08 1.91 8.36-.07 3.13-.71 5.74-1.91 7.82s-2.75 3.74-4.65 4.97c-1.9 1.24-4.01 2.11-6.34 2.62s-4.68.75-7.05.71-4.61-.33-6.72-.87c-2.1-.53-3.89-1.24-5.35-2.12z"/><path d="m392.65 510.87c0 1.17-.42 2.11-1.26 2.84s-1.77 1.09-2.79 1.09-1.88-.37-2.57-1.09c-.69-.73-.97-1.68-.82-2.84-1.39 1.31-3.24 2.3-5.58 2.95-2.33.66-4.74.98-7.22.98-5.68 0-10.2-1.18-13.56-3.55-3.35-2.37-5.03-5.78-5.03-10.22 0-1.97.45-3.83 1.37-5.58.91-1.75 2.2-3.24 3.88-4.48s3.7-2.22 6.07-2.95 5.01-1.09 7.93-1.09c2.77 0 5.34.4 7.71 1.2s3.88 1.75 4.54 2.84c-.15-1.82-.55-3.28-1.2-4.37-.66-1.09-1.53-1.95-2.62-2.57s-2.42-1.04-3.99-1.26-3.3-.33-5.19-.33c-2.19 0-4.17.26-5.96.76-1.79.51-3.41 1.17-4.87 1.97-1.53.88-2.7 1.09-3.5.66-.8-.44-1.31-.8-1.53-1.09-.88-1.02-1.13-2.09-.77-3.23.36-1.13 1.06-2.02 2.08-2.68 4.01-2.62 8.78-3.94 14.32-3.94 3.79 0 7 .4 9.62 1.2s4.74 1.97 6.34 3.5 2.77 3.41 3.5 5.63 1.09 4.76 1.09 7.6v18.05zm-7.65-9.73c0-1.46-.35-2.64-1.04-3.55s-1.62-1.64-2.79-2.19-2.48-.91-3.94-1.09-2.95-.27-4.48-.27c-1.31 0-2.64.15-3.99.44s-2.57.71-3.66 1.26-1.99 1.22-2.68 2.02-1.04 1.75-1.04 2.84c-.07 1.24.18 2.31.77 3.23.58.91 1.4 1.68 2.46 2.29 1.06.62 2.26 1.08 3.61 1.37s2.75.44 4.21.44c3.57 0 6.56-.62 8.96-1.86s3.61-2.88 3.61-4.93z"/><path d="m410.9 465.83c0 1.53-.42 2.75-1.26 3.66s-2.02 1.37-3.55 1.37c-1.6 0-2.83-.45-3.66-1.37-.84-.91-1.26-2.13-1.26-3.66 0-1.46.42-2.62 1.26-3.5.84-.87 2.06-1.31 3.66-1.31 1.24 0 2.35.35 3.33 1.04.99.7 1.48 1.95 1.48 3.77zm-.87 44.06v-29.95c0-1.38-.29-2.53-.87-3.44s-1.57-1.37-2.95-1.37c-1.46 0-2.48.47-3.06 1.42s-.88 2.08-.88 3.39v29.95c0 1.31.29 2.44.88 3.39.58.95 1.6 1.42 3.06 1.42.95 0 1.82-.37 2.62-1.09.8-.73 1.2-1.97 1.2-3.72z"/></g><path d="m525.94 344.25c-1.32 61.62-24.59 115.51-71.19 159.12-1.15 1.08-2.61 2.1-3.22 3.46-6.94 15.43-19.13 26.6-30.8 38.18-16.89 16.78-32.65 34.76-50.74 50.25-38.16 32.67-95.46 30.61-131.61-4.5-20.08-19.5-39.73-39.43-59.48-59.27-3.06-3.08-6.36-6.27-8.29-10.06-6.71-13.14-17.59-22.72-27.1-33.53-41.35-46.98-60.57-101.86-54.83-164.24 7.47-81.16 48.42-141.31 120.74-178.03 129.44-65.72 287.34 14.07 312.98 156.95 2.35 13.12 3.16 26.37 3.54 41.67zm-297.73 46.25.06.05c-.07-.76-.47-1.17-1.23-1.24l.03.02c-3.22-4.32-7.69-5.38-12.58-4.18-10.35 2.56-19.41 7.72-27.16 14.97-5.53 5.17-6.18 10.17-3.02 17.53 2.41 5.63 6.8 9.71 11.34 13.43 9.84 8.08 23.75 7.12 32.65-1.81 9.08-9.11 9.56-25.12 1.13-37.52-.4-.42-.81-.84-1.22-1.25zm158.41-1.19c-1.03.21-1.37.88-1.22 1.86-7.85 7.74-8.3 17.27-6.29 27.21 1.84 9.1 7.43 15.01 16.41 17.47 12.52 3.43 27.06-4.54 32.79-17.83 4.06-5.47 3.48-12.73-2.12-17.92-7.76-7.2-16.82-12.43-27.17-14.94-4.74-1.15-9.44-.62-12.44 4.17zm-203.92 44.05c-2.16-3.42-4.32-6.85-6.85-10.85-10.16 15.27-14.42 31.43-13.57 48.78.54 10.98 1.89 22 8.64 31.39 2.28 7.28 6.23 13.61 11.56 18.98 21.23 21.37 42.19 43.04 63.94 63.88 33.93 32.52 89.01 31.58 122.5-1.62 20.41-20.23 40.75-40.55 60.79-61.14 6.15-6.32 11.82-13.33 14.12-22.28 11.34-27.21 8.15-63.81-6.87-77.2-2.05 3.38-4.07 6.73-6.1 10.08-2.74.51-4.06 2.97-6.06 4.47-21.63 16.25-48.41 7.6-55.34-18.06-2.06-7.61-.73-15.27.85-22.83 1.23-2.48 2.2-5.13 3.74-7.38 2.33-3.4 1.95-4.54-2.41-4.65-22.68-.59-42.35 6.7-58.99 22.1-5.43 5.02-6.17 5.14-11.7.17-15.65-14.04-33.93-21.65-54.99-22-8.49-.14-8.49.22-5 7.56.76 1.61 1.52 3.22 2.28 4.82.4 2.14.91 4.26 1.19 6.41 1.91 14.59-1.29 27.68-13.94 36.22-12.3 8.31-25.49 7.51-38.17-.02-3.36-2-6.41-4.54-9.62-6.83zm32.6-179.81c4.82-.03 6.66-4.28 9.82-6.71 2.79-2.14 2.22-3.29 0-5.25-6.65-5.87-14.13-8.38-23.17-8.53-14.34-.24-25.9 9.39-30.31 20.79-4.86 12.55-.89 27.46 9.1 36.2 6.46 5.65 7.41 5.47 11.35-2.33 1.06-2.1 1.88-4.32 2.81-6.49.68-.3 1.65-.41 1.99-.93 5.39-8.23 11.27-16.06 18.13-23.12 1.2-1.24 1.24-2.34.28-3.63zm180.54 1.26c5.6 8.45 13.18 15.41 18.28 24.24 1.14 1.98 2.8.38 4.22.41-.53.99-1.77 2.35-1.48 2.91 1.97 3.82 3.58 8.4 6.77 10.76 1.47 1.09 6.21-2.38 8.74-4.93 1.95-1.96 3.97-3.92 5.52-6.18 13.92-20.3 1.39-45.96-20.48-50.71-11.21-2.43-21.56 1.29-30.08 9.19-1.47 1.36-3.88 3.3-1.63 5.43 3.25 3.09 5.6 7.27 10.14 8.88zm-159-31.09c1.86 8.3 5.58 15.98 7.98 24.09 1.06 3.57 2.44 4.42 6.23 3.27 16.58-5 33.68-6.82 50.94-7.1 20.08-.33 39.85 1.98 59.31 7.02 1.69.44 4.06 2.67 5.24-1.06 2.92-9.19 7.01-17.98 9.23-27.41 1.8-4.59 3.82-9.1 5.34-13.78 3.63-11.17-1.89-22.58-13.01-26.26-41.34-13.68-82.77-13.58-124.12-.01-11.06 3.63-16.6 15.22-12.92 26.34 1.69 5.07 3.84 9.95 5.78 14.9zm-52.88 159.8c-.05 4.44.41 6.78 5.7 3.32 11.41-7.45 23.29-13.95 37.82-9.36 1.22.39 2.75-.12 4.12-.3 26.8-3.69 50.68 3.11 71.6 20.14 2.62 2.13 4.09 2.33 6.76.04 19.76-16.87 42.9-23.06 68.5-21.04 2.76.22 5.75 1.56 8.21.87 13.42-3.75 24.41 1.86 35.24 8.41 5.6 3.38 5.57 3.44 6.59-3.3 1.29-4.6 1.91-9.31 2.01-14.06.96-45.81-16.48-83.52-50.09-114.21-3.5-3.2-4.82-3.42-6.36 1.5-2.43 7.8-3.02 7.69-11.14 5.45-37.7-10.39-75.45-11.11-113.18-.19-8.72 2.53-9.18 2.72-11.87-5.95-1.57-5.07-3.14-3.89-6.07-1.29-20.16 17.88-34.64 39.52-43.05 65.11-6.93 21.16-9.72 42.75-4.79 64.86zm-31.02 77.44c2.22-15.86 5.99-31.33 15.9-44.24 4.56-5.94 4.4-13.5 8.63-19.3.7-.97-.05-1.89-.32-2.8-8.26-28.29-5.8-56.09 4.64-83.24 2.19-5.69 1.56-8.23-3.42-11.68-18.85-13.06-23.65-37.92-11.53-56.78 12.37-19.25 36.9-25.19 57-13.83 1.38.78 2.58 2.5 5.15 1.39-2.13-6.11-4.24-12.03-6.25-17.98-5.74-16.98 2.38-33.32 19.36-38.85 41.63-13.57 83.38-13.82 125.19-.91 20.82 6.42 28.43 22.03 21.22 42.62-1.62 4.63-4.22 9.08-4.25 14.67 3.16-1.67 5.74-3.13 8.39-4.43 19.67-9.67 44.46-2.09 54.79 16.73 11.16 20.33 5.13 45.41-14.33 56.72-5.28 3.07-5.43 5.44-3.47 10.58 10.3 26.92 13.75 54.45 5.96 82.73-.41 1.49-1.08 3-.08 4.57 4.42 6.98 5.83 15.25 10.79 22.22 10.03 14.1 13.34 30.71 14.44 47.76-.65 6.16-1.31 12.32-2.02 19.03 50.26-50.19 74.88-135.05 45.32-216.25-30.57-83.98-112.23-139.85-200.87-137.86-92.75 2.08-170.24 60.59-197.94 150.77-23.72 77.22 2.99 158 49.41 203.02-1.18-8.54-1.94-16.58-1.71-24.66z" fill="#0a0a0c"/><path d="m460.75 466.89c-1.11-17.05-4.42-33.65-14.44-47.76-4.96-6.98-6.36-15.24-10.79-22.22-1-1.57-.33-3.08.08-4.57 7.79-28.28 4.34-55.81-5.96-82.73-1.97-5.14-1.81-7.51 3.47-10.58 19.46-11.31 25.49-36.39 14.33-56.72-10.33-18.82-35.12-26.4-54.79-16.73-2.65 1.3-5.23 2.76-8.39 4.43.02-5.59 2.62-10.04 4.25-14.67 7.21-20.59-.41-36.19-21.22-42.62-41.81-12.9-83.56-12.66-125.19.91-16.99 5.54-25.11 21.87-19.36 38.85 2.01 5.95 4.12 11.87 6.25 17.98-2.58 1.11-3.78-.61-5.15-1.39-20.1-11.35-44.63-5.42-57 13.83-12.12 18.86-7.32 43.72 11.53 56.78 4.98 3.45 5.61 5.99 3.42 11.68-10.43 27.15-12.9 54.95-4.64 83.24.27.92 1.03 1.83.32 2.8-4.22 5.8-4.07 13.36-8.63 19.3-9.91 12.91-13.68 28.38-15.9 44.24-1.73 1.38.22 4.27-1.91 5.23-1.54.7-2.44-.99-3.22-2.05-12.12-16.48-22.16-34.06-29.4-53.3-9.93-26.41-12.87-53.69-11.79-81.67.61-15.73 3.88-31.03 8.25-45.89 4.5-15.26 11.18-29.83 19.47-43.67 16.7-27.88 38.56-50.81 66.05-67.75 39.28-24.21 82.15-34.19 128.36-29.18 29.79 3.23 57.38 12.67 82.77 28.28 31.2 19.17 55.47 45.13 72.56 77.53 12.01 22.76 19.41 46.92 21.9 72.73 1.86 19.28 1.4 38.4-2.14 57.28-5.84 31.08-18.91 59.2-37.4 84.82-1.47 2.06-2.94 3.74-5.69 3.59z" fill="#2ca7de"/><path d="m183.96 383.52c-4.93-22.11-2.14-43.69 4.82-64.88 8.41-25.58 22.89-47.22 43.05-65.11 2.92-2.59 4.5-3.78 6.07 1.29 2.68 8.67 3.14 8.48 11.87 5.95 37.73-10.92 75.49-10.2 113.18.19 8.12 2.24 8.7 2.35 11.14-5.45 1.53-4.92 2.85-4.7 6.36-1.5 33.61 30.69 51.06 68.4 50.09 114.21-.1 4.76-.72 9.47-2.01 14.06-5.78-.86-10.29-4.71-15.64-6.67-15.28-5.6-30.82-8.15-47.04-5.72-19.11 2.85-36.93 9.91-54.75 16.91-3.38 1.33-6.21 1.47-9.62.04-10.75-4.51-21.49-9.12-32.74-12.25-8.69-2.41-17.49-4.39-26.25-6.56 1.08-.44 2.15-.9 3.24-1.31 2.55-.95 4.66-2.55 4.87-5.34.25-3.27-2.38-4.79-4.9-5.97-2.95-1.38-6.19-.9-9.31-.84-4.37.09-8.78 1.27-9.97 5.79-1.29 4.89 3.79 5.57 6.76 7.47-1.18 1.41-2.82 1.16-4.37 1.21-16.34.55-31.12 5.9-44.85 14.48zm115.71-37.91c-4.49 1.31-7.78 4.22-9.35 8.48-2.66 7.25-.41 14.15 13.96 13.86 4.04 11.14-7.01 4.24-9.71 8.29 8.44-.33 16.53 1.21 24.54-.6-11.75-1.25-11.75-1.25-10.75-7.65 1.96-.17 3.95-.14 5.86-.54 3.9-.82 8.03-1.73 9.15-6.34 1.12-4.6-.56-8.52-3.93-11.77-4.58-4.43-10.15-5.81-16.33-5.3-1.36.05-2.89-.27-3.44 1.57zm52.08 9.66c16.88.44 30.5-12.51 30.92-29.41.46-18.47-12.62-29.9-34.95-30.53-11.93-.34-25.02 14.37-25.47 28.62-.56 17.37 12.16 30.87 29.5 31.32zm-91.53.89c17.02.09 30.51-12.8 30.64-29.62.06-7.97-2.51-15.11-8.06-21.1-7.96-8.59-17.85-9.63-28.9-8.96-10.88.66-23.34 15.29-23.42 29.2-.11 17.1 12.86 30.39 29.74 30.48zm113.92 11.68c7.04.03 12.66-3.21 12.56-7.23-.11-4.22-6.59-7.77-13.36-6.8-4.54.65-9.94.91-10.68 7.16-.42 3.66 5.22 6.85 11.48 6.87z" fill="#fbfbfb"/><path d="m460.75 466.89c2.75.15 4.22-1.53 5.69-3.58 18.49-25.63 31.56-53.74 37.4-84.82 3.54-18.87 4-37.99 2.14-57.28-2.48-25.81-9.89-49.97-21.9-72.73-17.1-32.4-41.36-58.35-72.56-77.53-25.4-15.61-52.98-25.05-82.77-28.28-46.21-5.01-89.08 4.98-128.36 29.18-27.49 16.94-49.34 39.87-66.05 67.75-8.29 13.84-14.97 28.4-19.47 43.67-4.38 14.86-7.65 30.16-8.25 45.89-1.08 27.99 1.85 55.26 11.79 81.67 7.23 19.24 17.28 36.81 29.4 53.3.78 1.07 1.68 2.75 3.22 2.05 2.13-.97.17-3.85 1.91-5.23-.23 8.09.52 16.12 1.72 24.64-46.42-45.02-73.12-125.8-49.41-203.02 27.7-90.18 105.18-148.69 197.94-150.77 88.65-1.99 170.3 53.88 200.87 137.86 29.56 81.2 4.94 166.06-45.32 216.25.71-6.7 1.36-12.86 2.01-19.02z" fill="#bc1128"/><path d="m236.84 223.72c-1.94-4.96-4.09-9.84-5.77-14.88-3.69-11.12 1.85-22.71 12.92-26.34 41.34-13.58 82.77-13.68 124.12.01 11.11 3.68 16.64 15.09 13.01 26.26-1.52 4.68-3.55 9.19-5.34 13.78-2.26.21-2.67 2.19-3.39 3.73-7.93 16.83-20.35 18.04-34.47 16.11-21.04-2.88-42.1-3.21-63.15-.1-13.55 2-26.91 1.14-34.03-14.43-.74-1.6-1.51-3.81-3.9-4.14z" fill="#fbfbfb"/><path d="m428.32 418.02c-5.73 13.29-20.27 21.26-32.79 17.83-8.98-2.46-14.57-8.37-16.41-17.47-2.01-9.94-1.56-19.47 6.28-27.21.41-.62.81-1.24 1.22-1.86 0 0-.03.01-.03.01 6.47-1.05 12.89-1.12 18.93 1.77 3.9 1.86 7.74 3.9 11.36 6.24 7.42 4.83 13.26 10.68 11.44 20.69z" fill="#2f2f2f"/><path d="m229.44 391.75c8.43 12.4 7.94 28.4-1.13 37.52-8.9 8.94-22.81 9.89-32.65 1.81-4.54-3.72-8.93-7.8-11.34-13.43 1.24-5.61.9-11.89 6.22-15.87 10.82-8.09 21.84-15.72 36.54-12.45 0 0-.03-.02-.03-.02.05.78.51 1.14 1.23 1.24 0 0-.06-.05-.06-.05.4.41.81.83 1.22 1.25z" fill="#2f2f2f"/><path d="m183.96 383.52c13.73-8.58 28.5-13.93 44.83-14.46 1.55-.05 3.19.2 4.37-1.21 3.1.06 6.21.13 9.32.19 8.75 2.17 17.56 4.15 26.25 6.56 11.25 3.13 21.99 7.74 32.74 12.25 3.4 1.43 6.24 1.29 9.62-.04 17.82-7 35.64-14.05 54.75-16.91 16.22-2.42 31.77.13 47.04 5.72 5.35 1.96 9.85 5.81 15.64 6.67-1.03 6.74-.99 6.68-6.59 3.3-10.83-6.54-21.82-12.16-35.24-8.41-2.46.69-5.45-.65-8.21-.87-25.6-2.03-48.74 4.17-68.5 21.04-2.67 2.28-4.14 2.09-6.76-.04-20.92-17.03-44.81-23.83-71.6-20.14-1.37.19-2.9.69-4.12.3-14.54-4.59-26.42 1.91-37.82 9.36-5.31 3.46-5.76 1.13-5.72-3.31z" fill="#cbcaca"/><path d="m395.84 254.81c-4.54-1.61-6.89-5.79-10.14-8.87-2.25-2.13.16-4.07 1.63-5.43 8.52-7.89 18.87-11.62 30.08-9.19 21.87 4.74 34.41 30.41 20.48 50.71-1.55 2.26-3.57 4.23-5.52 6.18-2.54 2.54-7.27 6.01-8.74 4.93-3.19-2.36-4.8-6.94-6.77-10.76-.29-.57.95-1.92 1.48-2.91l.08.08c1.23.14 2.26-.07 2.63-1.47l.14.33s-.34.13-.34.13c.48-.56.96-1.11 1.44-1.67 4.19-4.98 7.35-10.34 5.48-17.18-1.86-6.81-6.23-11.55-13.14-13.05-7.97-1.73-14.19 1.6-18.79 8.17z" fill="#313131"/><path d="m243.24 397.58c-.76-1.61-1.51-3.22-2.28-4.82-3.49-7.34-3.49-7.7 5-7.56 21.06.35 39.34 7.96 54.99 22 5.53 4.96 6.27 4.85 11.7-.17 16.64-15.4 36.31-22.68 58.99-22.1 4.36.11 4.74 1.25 2.41 4.65-1.55 2.26-2.52 4.91-3.74 7.38-2.96-.53-5.91-.98-8.73.58-17.31-.26-32.48 5.83-46.16 15.96-8.77 6.5-8.66 6.64-17.23.22-1.42-1.06-2.94-1.99-4.42-2.97-2.77-2.34-5.94-3.86-9.42-4.79-8.56-5-17.82-7.62-27.68-8.26-4.47-.04-8.95-.08-13.43-.12z" fill="#f05a5c"/><path d="m194.9 281.22c-.93 2.17-1.75 4.39-2.81 6.49-3.94 7.8-4.89 7.97-11.35 2.33-10-8.74-13.96-23.65-9.1-36.2 4.41-11.39 15.97-21.03 30.31-20.79 9.05.15 16.52 2.66 23.17 8.53 2.22 1.96 2.78 3.11 0 5.25-3.16 2.43-5.01 6.68-9.82 6.71-4.8-3.69-9.88-6.54-16.27-5-7.16 1.73-11.95 6.19-13.43 13.36-1.75 8.56 2.11 14.85 9.3 19.32z" fill="#2f2f2f"/><path d="m236.84 223.72c2.39.32 3.16 2.53 3.89 4.13 7.12 15.57 20.48 16.43 34.03 14.43 21.05-3.11 42.12-2.78 63.15.1 14.12 1.93 26.54.72 34.47-16.11.72-1.54 1.13-3.52 3.39-3.73-2.22 9.43-6.31 18.22-9.23 27.41-1.18 3.73-3.55 1.5-5.24 1.06-19.46-5.04-39.24-7.35-59.31-7.02-17.26.28-34.36 2.1-50.94 7.1-3.8 1.14-5.18.3-6.23-3.27-2.4-8.12-6.12-15.8-7.98-24.1z" fill="#cbcaca"/><path d="m395.84 254.81c4.6-6.57 10.82-9.9 18.8-8.17 6.91 1.5 11.28 6.24 13.14 13.05 1.87 6.84-1.3 12.21-5.49 17.18-.48.56-.96 1.11-1.44 1.67 0 0 .34-.13.34-.13s-.14-.33-.15-.33c-1.03.22-2.08.38-2.63 1.46l-.08-.08c-1.42-.03-3.08 1.57-4.22-.41-5.09-8.83-12.67-15.79-18.27-24.24z" fill="#f5f5f5"/><path d="m194.9 281.22c-7.19-4.47-11.05-10.76-9.29-19.31 1.47-7.16 6.26-11.63 13.43-13.36 6.38-1.54 11.47 1.3 16.27 5 .95 1.28.92 2.39-.27 3.61-6.86 7.06-12.74 14.9-18.13 23.12-.36.53-1.33.64-2.01.94z" fill="#f5f5f5"/><path d="m434.41 439.24c0-2.67-1.03-4.72-3.55-5.86 2.03-3.35 4.05-6.7 6.1-10.08 15.02 13.39 18.21 49.99 6.87 77.2-1.79-1.36-1.07-3.3-1.16-5.05 5-18.34 2.59-35.83-5.99-52.63-.38-.75-.77-1.51-1.15-2.26l-.03-.03c-.39-.41-.78-.82-1.17-1.22z" fill="#f05a5c"/><path d="m227.07 389.33c-14.71-3.26-25.72 4.36-36.54 12.45-5.32 3.98-4.98 10.25-6.22 15.87-3.17-7.36-2.51-12.36 3.02-17.53 7.76-7.25 16.81-12.41 27.16-14.97 4.89-1.2 9.36-.14 12.58 4.18z" fill="#646464"/><path d="m428.32 418.02c1.82-10-4.01-15.86-11.43-20.67-3.62-2.35-7.47-4.38-11.36-6.24-6.05-2.89-12.47-2.83-18.93-1.77 3-4.79 7.7-5.32 12.44-4.17 10.34 2.52 19.4 7.75 27.17 14.94 5.58 5.18 6.17 12.44 2.11 17.91z" fill="#646464"/><path d="m228.28 390.55c-.73-.1-1.19-.46-1.23-1.24.75.07 1.16.48 1.23 1.24z" fill="#646464"/><path d="m386.62 389.31c-.41.62-.81 1.24-1.22 1.86-.15-.98.19-1.65 1.22-1.86z" fill="#646464"/><path d="m229.44 391.75c-.41-.42-.82-.83-1.23-1.25.41.41.82.83 1.23 1.25z" fill="#646464"/><path d="m351.75 355.27c-17.34-.45-30.06-13.95-29.51-31.31.46-14.25 13.54-28.96 25.47-28.62 22.33.63 35.41 12.06 34.95 30.53-.41 16.89-14.03 29.84-30.91 29.4zm-13.99-39.72c-4.77.17-8.39 4.01-8.01 7.85.42 4.3 3.71 6.54 7.16 7.56 3.12.93 8.09-4.63 7.75-8.17-.44-4.51-3.11-6.99-6.9-7.24z" fill="#313131"/><path d="m260.22 356.16c-16.87-.09-29.84-13.39-29.74-30.48.09-13.91 12.54-28.54 23.42-29.2 11.05-.67 20.94.37 28.9 8.96 5.55 5.99 8.12 13.12 8.06 21.1-.13 16.82-13.62 29.72-30.64 29.62zm7.41-32.54c.07 3.51 4.68 8.66 7.57 8.44 3.22-.24 7.56-5.39 7.19-8.89-.45-4.26-3.04-6.79-7.3-7.07-3.91-.26-7.54 3.61-7.46 7.52z" fill="#313131"/><path d="m303.11 344.05c6.18-.51 11.75.87 16.33 5.3 3.36 3.25 5.05 7.17 3.93 11.77s-5.25 5.51-9.15 6.34c-1.91.4-3.9.37-5.86.54-1.36-.01-2.72-.03-4.08-.04-14.37.28-16.62-6.61-13.96-13.86 1.57-4.26 4.85-7.17 9.35-8.48 1.12.74 1.54 1.41 1.46 3.09-.15 2.94 3.08 4.74 4.87 3.97 1.92-.83 5.97-.13 5.74-3.68-.18-2.74-2.99-3.1-5.4-3.43-1.16-.16-3.33 1.41-3.23-1.52z" fill="#313131"/><path d="m374.14 367.84c-6.26-.02-11.91-3.21-11.48-6.86.73-6.25 6.14-6.51 10.68-7.16 6.77-.97 13.25 2.58 13.36 6.8.1 4.01-5.52 7.25-12.56 7.22z" fill="#de9282"/><path d="m242.48 368.04c-3.11-.06-6.21-.13-9.32-.19-2.96-1.9-8.05-2.58-6.76-7.47 1.19-4.52 5.61-5.7 9.97-5.79 3.12-.07 6.36-.55 9.31.84 2.52 1.18 5.15 2.7 4.9 5.97-.21 2.79-2.32 4.39-4.87 5.34-1.08.4-2.15.86-3.23 1.3z" fill="#de9282"/><path d="m304.28 367.95c1.36.01 2.72.03 4.08.04-.99 6.4-.99 6.4 10.75 7.65-8.01 1.8-16.09.27-24.54.6 2.7-4.05 13.75 2.86 9.71-8.29z" fill="#0a0a0c"/><path d="m303.11 344.05c-.1 2.93 2.07 1.36 3.22 1.51 2.41.32 5.22.69 5.4 3.43.23 3.54-3.82 2.84-5.74 3.68-1.79.78-5.02-1.03-4.87-3.97.09-1.67-.33-2.35-1.46-3.09.56-1.84 2.09-1.52 3.45-1.56z" fill="#f5f5f5"/><path d="m418.42 279.54c.54-1.08 1.6-1.24 2.63-1.46-.37 1.39-1.4 1.6-2.63 1.46z" fill="#0a0a0c"/><path d="m420.85 278.54c.48-.56.96-1.11 1.44-1.67-.48.56-.96 1.11-1.44 1.67z" fill="#0a0a0c"/><path d="m436.68 442.82c-1.01-.43-1.14-1.32-1.15-2.26.38.75.77 1.5 1.15 2.26z" fill="#ca161a"/><path d="m435.5 440.52c-.39-.41-.78-.81-1.17-1.22.39.41.78.82 1.17 1.22z" fill="#ca161a"/><path d="m337.76 315.55c3.78.24 6.45 2.72 6.89 7.25.34 3.54-4.62 9.09-7.75 8.17-3.44-1.02-6.74-3.26-7.16-7.56-.36-3.85 3.25-7.69 8.02-7.86z" fill="#f5f5f5"/><path d="m267.63 323.62c-.08-3.9 3.55-7.78 7.46-7.52 4.26.28 6.85 2.81 7.3 7.07.37 3.5-3.98 8.64-7.19 8.89-2.89.21-7.5-4.93-7.57-8.44z" fill="#f5f5f5"/><path d="m366.38 539.43.5.27-.22.23z" fill="#fd1416"/><path d="m267.97 191.76h76.53v24.89h-76.53z" fill="#bc1128"/><path d="m276.43 191.76h59.14v24.89h-59.14z" fill="#bc1128" transform="matrix(0 1 -1 0 510.2062 -101.7988)"/></svg>