<?xml version="1.0" encoding="utf-8"?>
<!-- Generator: Adobe Illustrator 17.1.0, SVG Export Plug-In . SVG Version: 6.00 Build 0)  -->
<!DOCTYPE svg PUBLIC "-//W3C//DTD SVG 1.1//EN" "http://www.w3.org/Graphics/SVG/1.1/DTD/svg11.dtd">
<svg version="1.1" id="Layer_1" xmlns="http://www.w3.org/2000/svg" xmlns:xlink="http://www.w3.org/1999/xlink" x="0px" y="0px"
	 viewBox="0 0 380.7 473.5" enable-background="new 0 0 380.7 473.5" xml:space="preserve">
<g>
	<defs>
		<path id="SVGID_1_" d="M72.9,41.1c-22-7.3-47.8-2-63.6,18.9c-12.9,16.9-12.6,44,3.9,63c-8,21.2-12.3,43.8-12.4,66.8
			c0,0.2,0,0.4,0.1,0.6c0,0.2-0.1,0.4-0.1,0.6c0.1,13.2,1.9,26,5.3,38.1c0,0.8,0.1,1.6,0.3,2.5c0.5,1.9,1,3.8,1.7,5.7
			c5,16.3,12.3,32.1,19.7,47.3c21,43.1,48.5,83.1,80.1,119.2c10.3,11.8,21.1,23.1,32.3,34.1c5.9,5.7,11.9,11.3,18,16.8
			c5.8,5.2,11.9,11.9,19,15.4c6.9,3.4,15.3,4.3,22.6,1.6c7.9-2.9,13.9-9.3,20.1-14.8c12.5-11.2,24.5-22.9,36-35
			c35.5-37.5,66.7-79.5,90.8-125.3c7.4-14.2,14.2-28.7,20-43.6c1.6-4.1,3.3-8.3,4.7-12.5c1.1-2.9,2.2-5.9,3-8.9
			c0.1-0.3,0.1-0.6,0.1-0.9c3.7-12.8,5.7-26.1,5.8-39.7c0-0.2,0-0.4-0.1-0.6c0-0.2,0.1-0.4,0.1-0.6c-0.1-22.8-4.3-45.6-12.2-66.9
			c16.4-19,16.7-46.1,3.8-63c-15.9-20.9-41.7-26.2-63.8-18.8c-15.7-12.4-33.3-22.4-52.2-29.4C234.8,4,213.1,0.3,191.5,0.3
			C148.8,0.3,106.6,14.6,72.9,41.1"/>
	</defs>
	<clipPath id="SVGID_2_">
		<use xlink:href="#SVGID_1_"  overflow="visible"/>
	</clipPath>
	
		<linearGradient id="SVGID_3_" gradientUnits="userSpaceOnUse" x1="0" y1="473.538" x2="1" y2="473.538" gradientTransform="matrix(0 -472.9696 -472.9696 0 224159.4844 473.2532)">
		<stop  offset="0" style="stop-color:#6ACEC2"/>
		<stop  offset="0.5258" style="stop-color:#6ACEC2"/>
		<stop  offset="0.8441" style="stop-color:#7BD3FF"/>
		<stop  offset="1" style="stop-color:#7BD3FF"/>
	</linearGradient>
	<rect x="-3.7" y="0.3" clip-path="url(#SVGID_2_)" fill="url(#SVGID_3_)" width="388.1" height="474.1"/>
</g>
<g>
	<path fill="#FFFFFF" d="M360.1,191c-0.1,11.6-1.7,22.7-4.7,33.4c-0.3,0.6-0.5,1.2-0.7,2c-0.6,2.4-1.4,4.8-2.2,7.2
		c-0.9,2.4-1.8,4.8-2.8,7.1c0,0,0,0.1-0.1,0.1c-1,2.2-2.1,4.3-3.2,6.5c-2.6,5-5.4,9.8-8.5,14.5c-1.8,2.7-3.7,5.4-5.6,8.1
		c-0.4,0.5-0.8,1-1.1,1.5c-0.2,0.2-0.4,0.5-0.6,0.7c-1.2,1.5-2.3,2.9-3.5,4.3c-4.2,5-8.8,9.7-13.6,14.1c-11,10-23.5,18.6-36.9,25.5
		c-0.1,0-0.1,0.1-0.2,0.1c-1.4,0.7-2.9,1.4-4.4,2.1c-1.9,0.9-3.9,1.8-5.9,2.6c-22.3,9.3-48.2,14.1-73.2,15.2c-1.6,0-3.1,0.1-4.7,0
		c-23.1-0.9-45.9-4.8-67.6-12.8c-0.6-0.2-1.3-0.5-1.9-0.7c-2.1-0.8-4.3-1.7-6.4-2.6c-0.7-0.3-1.3-0.6-2-0.9
		c-6.9-3.1-13.5-6.7-19.9-10.7c-1-0.6-2-1.3-3-1.9c-5.7-3.7-11.1-7.8-16.3-12.2c-1.9-1.6-3.8-3.3-5.6-5c-0.1-0.1-0.3-0.3-0.4-0.4
		c-2.8-2.6-5.4-5.4-8-8.2c-2.5-2.7-4.8-5.5-7.1-8.4c-0.1-0.2-0.6-0.8-0.9-1.1c-0.3-0.4-1-1.3-1.1-1.5c-1-1.3-1.9-2.6-2.8-3.9
		c-5.4-7.7-9.9-15.8-13.9-24.2c-6.9-15.9-10.7-33-10.8-50.6c0-0.2-0.1-0.4-0.1-0.6c0-0.2,0.1-0.4,0.1-0.6
		c0.3-70.2,44.7-135.3,111.1-159.4c33.5-12.2,70.3-13.7,104.7-4.1c33.3,9.3,62.9,28.9,85,55.4c25.2,30.2,38.6,68.9,38.7,108
		c0,0.2,0,0.4,0.1,0.6C360.2,190.6,360.1,190.8,360.1,191"/>
	<path fill="#7BD3FF" d="M200.6,159.4c-2.8,0.5-5.6,0.8-8.5,0.9c-5.6,0.2-11.2-0.6-16.6-2.2c-2.5-0.7-5.5,0.7-6.2,3.3
		c-0.7,2.9,0.9,4.9,3.3,6.3c2.5,1.5,5.8,2.4,7.9,2.9c6.1,1.5,12.5,1.8,18.6,0.5c1.9-0.4,3.8-0.9,5.6-1.6c2.1-0.8,4.4-1.8,5.9-3.6
		c1.8-2,1.7-5-0.5-6.8C207.3,156.9,203.7,158.8,200.6,159.4"/>
	<path fill="#7BD3FF" d="M140.4,100.1c-2.4-16-20.1-16.7-33.5-15.1c-1.7,0.2-3.3,0.4-4.9,0.7c-19.5,3.1-46.1,16-50,38
		c-2.3,12.9,2.1,24.5,12.3,32.4c9.3,7.2,22.1,9.8,33.4,6.7c6.8-1.9,13-5.7,18.5-10.2C130.9,140.3,143.3,119.8,140.4,100.1
		 M116.6,128.3c-4.3,5-10.9,6.3-14.8,3c-3.9-3.3-3.5-10.1,0.8-15.1c4.3-5,10.9-6.3,14.8-3C121.3,116.6,120.9,123.4,116.6,128.3"/>
	<path fill="#7BD3FF" d="M328.9,123.6c-3.9-22-30.6-34.8-50-38c-1.5-0.2-3.2-0.5-4.9-0.7c-13.4-1.6-31.1-0.9-33.5,15.1
		c-3,19.8,9.4,40.3,24.1,52.4c5.5,4.5,11.7,8.3,18.5,10.2c11.4,3.1,24.1,0.5,33.4-6.7C326.7,148.1,331.1,136.5,328.9,123.6
		 M279,131.3c-3.9,3.3-10.5,2-14.8-3c-4.3-5-4.7-11.7-0.8-15.1c3.9-3.3,10.5-2,14.8,3C282.5,121.2,282.9,127.9,279,131.3"/>
	<path fill="#FFFFFF" d="M216,414.9h-6.1h-2h-2.8v2.8v2v6.1c0,8-6.7,14.5-14.9,14.5c-8.3,0-14.9-6.5-14.9-14.5v-6.1v-2v-2.8h-2.8h-2
		h-6.1c-8,0-14.5-6.7-14.5-14.9c0-8.3,6.5-14.9,14.5-14.9h6.1h2h2.8v-2.8v-2v-6.1c0-8,6.7-14.5,14.9-14.5c8.3,0,14.9,6.5,14.9,14.5
		v6.1v2v2.8h2.8h2h6.1c8,0,14.5,6.7,14.5,14.9C230.4,408.2,224,414.9,216,414.9"/>
	<path fill="#7BD3FF" d="M188.3,107.2c1.2,1.1,3,1.1,4.2,0c7-6.6,20.3-4,21.3,7c0.9,8.9-7.5,15.1-14.2,19.2
		c-2.2,1.4-4.6,2.9-7.1,4.2c-1.4,0.7-3,0.7-4.4,0c-2.5-1.3-4.9-2.9-7.1-4.2c-6.7-4.2-15.1-10.3-14.2-19.2
		C168,103.2,181.3,100.6,188.3,107.2"/>
</g>
</svg>
