<?xml version="1.0" encoding="UTF-8"?>
<svg id="Layer_1" data-name="Layer 1" xmlns="http://www.w3.org/2000/svg" viewBox="0 0 595.28 841.89">
  <defs>
    <style>
      .cls-1 {
        fill: #fefefe;
      }

      .cls-1, .cls-2, .cls-3, .cls-4, .cls-5, .cls-6 {
        stroke-width: 0px;
      }

      .cls-2 {
        fill: #257065;
      }

      .cls-3 {
        fill: #6acec2;
      }

      .cls-4 {
        fill: #ccc;
      }

      .cls-5 {
        fill: #ca894d;
      }

      .cls-6 {
        fill: #e8e8e8;
      }
    </style>
  </defs>
  <g>
    <path class="cls-1" d="m454.91,119.32c2.9-.59,4.1.75,4.03,3.55-.06,2.63-.11,5.27-.16,7.9-.22,3.57-.63,7.13-.63,10.69-.04,172.59-.04,345.19-.04,517.78,0,3.12-.3,6.28,1.07,9.24-.04,5.55-.22,11.1-.07,16.64.13,4.58-1.86,6.3-6.38,6.24-8.43-.11-16.86.15-25.29.25-23.86-.08-47.72-.16-71.58-.22-2.48,0-4.97.02-6.58,2.41-14.41-2.07-28.9-2.54-43.45-2.5-55.44.15-110.89.04-166.33.07-26.83.02-53.65.13-80.48.2-1.14-.12-2.29-.25-3.43-.37-.51-.37-1.02-.73-1.53-1.1-.06-11.08-.12-22.15-.18-33.23.07-68.55.15-137.09.22-205.64,0-2.97-.53-5.78-2.51-8.14,1.65-9.49,1.66-19.08,1.65-28.67-.09-59.74-.17-119.49-.25-179.23,1.6-3.15,1.17-6.55,1.17-9.87.03-31.49.01-62.98.02-94.47q0-12.29,12.22-12.31c122.16,0,244.32.03,366.49-.08,7.37,0,14.62,2.23,22.02.84Zm-198.84,42.03v-.03c-2.01,0-4.02,0-6.04,0-29.29.01-58.58-.07-87.87.09-10.8.06-17.84,6.74-18.25,16.56-.43,10.49,5.76,17.72,16.53,19.12,2.43.32,4.91.29,7.36.29,58.36.01,116.71.03,175.06-.04,4.23,0,8.51-.32,12.66-1.08,6.93-1.27,12.22-7.53,12.83-14.5,1.09-12.5-5.97-20.31-19.06-20.37-31.08-.15-62.16-.05-93.23-.05Zm.76,218.74c-48.92,0-97.84,0-146.76,0-2.46,0-4.92,0-7.36.2-2.23.18-3.82,1.27-3.83,3.78,0,2.52,1.59,3.55,3.82,3.8,1.55.17,3.12.18,4.68.18,99.18,0,198.36.02,297.54-.06,3.2,0,8.31,1.56,8.32-3.91,0-5.48-5.1-3.53-8.31-3.95-1.76-.23-3.57-.04-5.36-.04-47.58,0-95.16,0-142.74,0Zm.04,21.48c-21.44,0-42.89,0-64.33,0-29.04,0-58.07,0-87.11.05-2.82,0-6.42-.38-6.48,3.87-.05,4.28,3.54,3.92,6.38,3.96,7.59.1,15.19.05,22.78.05,92.47,0,184.94.01,277.42-.06,3.06,0,7.69,1.2,7.75-3.86.06-5.11-4.58-3.62-7.65-3.99-1.1-.13-2.23-.03-3.35-.03-48.47,0-96.94,0-145.41,0Zm-1.41-92.63c49.17,0,98.35,0,147.52,0,2.23,0,4.48,0,6.7-.19,2.25-.2,3.79-1.35,3.75-3.85-.04-2.53-1.69-3.54-3.9-3.72-2.22-.18-4.46-.18-6.7-.18-97.46,0-194.91,0-292.37,0-2.01,0-4.03-.02-6.03.09-2.86.16-5.67.83-5.43,4.44.22,3.36,3.12,3.28,5.58,3.38,2.01.08,4.02.05,6.03.05,48.28,0,96.56,0,144.84,0Zm.62,234.85c-49.15,0-98.29-.04-147.44.08-3.43,0-9.11-1.72-9.25,3.64-.16,6.06,5.83,4.2,9.4,4.2,98.52.11,197.03.11,295.55,0,3.34,0,8.94,1.86,8.86-3.99-.09-5.77-5.65-3.83-9-3.84-49.37-.13-98.74-.09-148.11-.09Zm-.5-113.84c0-.06,0-.12,0-.18,49.14,0,98.28,0,147.41-.01,2.45,0,4.91-.08,7.35-.32,1.72-.18,2.91-1.27,2.89-3.11-.02-1.85-1.25-2.88-2.97-3.04-2.44-.22-4.9-.29-7.35-.29-97.83-.01-195.66-.01-293.49,0-2.01,0-4.02,0-6.03.1-2.45.11-4.5.89-4.56,3.79-.07,3.34,2.27,3.11,4.64,3.11,50.7-.04,101.4-.03,152.1-.03Zm-.16-163.92c49.38,0,98.76,0,148.14-.02,2.45,0,4.91-.13,7.33-.45,1.44-.19,2.32-1.35,2.34-2.85.02-1.5-.82-2.67-2.26-2.92-1.96-.35-3.98-.5-5.98-.51-11.17-.05-22.34-.02-33.52-.02-88.26,0-176.52,0-264.78.06-2.86,0-7.41-1.18-7.46,3.31-.05,4.59,4.52,3.04,7.37,3.37,1.76.21,3.57.04,5.36.04,47.82,0,95.63,0,143.45,0Zm.75,21.46c49.6,0,99.21.03,148.81-.07,2.99,0,8.03,1.56,8.01-3.32-.03-4.82-5.05-2.83-8.06-3.37-.22-.04-.45,0-.67,0-98.76,0-197.53-.02-296.29.08-3.19,0-8.67-1.76-8.63,3.36.03,5.11,5.51,3.25,8.69,3.26,49.38.12,98.76.09,148.14.08Zm.11,221.37c49.19,0,98.37.05,147.56-.1,3.29,0,9.13,2.14,9.06-3.49-.06-4.89-5.61-3.07-8.82-3.07-98.6-.09-197.19-.1-295.79.01-3.17,0-8.78-1.91-8.78,3,0,5.32,5.8,3.56,9.22,3.56,49.19.12,98.37.08,147.56.08Zm-.2,14.68c-48.94,0-97.87-.05-146.81.11-3.35.01-9.4-2.25-9.53,2.78-.14,5.42,6.06,3.85,9.72,3.86,98.32.1,196.64.1,294.96,0,3.15,0,8.65,1.82,8.55-3.42-.1-5.05-5.54-3.23-8.73-3.24-49.38-.12-98.77-.08-148.15-.08Zm-79.14-157.11c11.39,0,22.79,0,34.18,0,13.4,0,26.81,0,40.21-.05,2.62,0,5.09-.48,4.99-3.93-.09-3.02-2.3-3.47-4.68-3.57-1.34-.06-2.68-.07-4.02-.07-46.69,0-93.37,0-140.06,0-1.34,0-2.68,0-4.02.07-2.38.11-4.56.57-4.66,3.59-.1,2.98,1.88,3.76,4.36,3.87,1.78.08,3.57.09,5.36.09,22.79,0,45.57,0,68.36,0Zm.78-128.69c-23.21,0-46.43,0-69.64,0-2.01,0-4.02.05-6.02.22-2.12.17-3.21,1.41-3.07,3.56.12,1.88,1.3,2.77,3.06,2.91,1.55.13,3.12.16,4.68.16,47.1,0,94.19,0,141.29,0,1.78,0,3.57-.07,5.34-.24,1.85-.17,2.78-1.39,2.78-3.16,0-1.77-.93-3-2.77-3.17-1.99-.19-4.01-.27-6.01-.27-23.21-.02-46.43-.01-69.64-.01Zm.05,249.71c23.65,0,47.3.05,70.95-.07,2.78-.01,7.29,1.48,7.29-3.33,0-4.81-4.54-2.85-7.3-3.38-.43-.08-.89-.01-1.34-.01-46.63,0-93.27,0-139.9,0-1.78,0-3.57.05-5.35.18-1.76.12-2.96.99-3.08,2.87-.14,2.17.98,3.37,3.09,3.53,2,.15,4.01.19,6.02.19,23.21.01,46.41,0,69.62,0Zm175.65,121.78c16.76,0,33.52,0,50.28,0,2.23,0,4.47-.04,6.69-.24,2.06-.19,3.18-1.39,3.18-3.56,0-2.21-1.21-3.29-3.23-3.51-1.77-.19-3.57-.25-5.35-.25-34.42-.01-68.83-.01-103.25,0-1.78,0-3.58.05-5.35.25-2.02.23-3.25,1.32-3.2,3.53.05,2.16,1.22,3.33,3.25,3.54,1.99.2,4.01.24,6.02.24,16.98.02,33.97,0,50.95.01Zm30.36,13.89c-7.81,0-15.62-.1-23.42.06-2.66.05-6.47-.92-6.64,3.51-.17,4.41,3.53,3.9,6.3,3.91,15.84.08,31.68.07,47.52,0,2.54-.01,5.89.48,5.97-3.54.09-4.5-3.56-3.85-6.3-3.89-7.81-.13-15.61-.04-23.42-.04Z"/>
    <path class="cls-3" d="m499.88,137c7.06.08,14.13,0,21.18.28,7.09.27,12.39,4.17,17.03,9.16,2.97,4.75,3.52,10,3.3,15.46-1,24.99-1.89,49.98-2.92,74.97-.87,21.19-1.77,42.38-2.84,63.57-.69,13.7-9.86,22.51-23.03,23.15-4.53.22-10.42-3.55-13.23.88-2.37,3.74-1.58,9.48-2.18,14.33-.05.44-.04.89-.06,1.34-1.46,36.14-2.86,72.29-4.41,108.43-.59,13.82-2,27.63-2.18,41.45-.22,16.3-2.59,32.53-1.49,48.86-.04.68-.08,1.36-.12,2.04-.59,1.75-1.04,3.51-.33,5.33-.12,1.93-.24,3.87-.36,5.8-.31,2.68-.62,5.36-.93,8.04-1.55,36.83-2.98,73.67-4.71,110.49-.61,12.88-5.43,18.55-17.48,22.24-.16-8.1-2.7-16.15-.43-24.29,4.8.47,6.32-2.04,6.08-6.44-.33-6.02-.51-12.05-.7-18.07-1.66-52.45-3.34-104.91-4.94-157.36-.7-22.99-2.03-46-1.64-68.97.37-21.58,4.98-42.85,7.65-64.27,6.58-52.95,13.59-105.85,20.58-158.75,2.54-19.24,4.15-38.62,8.17-57.65Z"/>
    <path class="cls-6" d="m499.88,137c-4.02,19.03-5.62,38.41-8.17,57.65-6.99,52.9-14,105.8-20.58,158.75-2.66,21.41-7.28,42.68-7.65,64.27-.39,22.98.93,45.98,1.64,68.97,1.6,52.46,3.28,104.91,4.94,157.36.19,6.03.37,12.05.7,18.07.24,4.4-1.27,6.91-6.08,6.44-1.83-.01-3.67-.02-5.5-.03-1.38-2.96-1.07-6.13-1.07-9.24,0-172.59,0-345.19.04-517.78,0-3.56.41-7.13.63-10.69,11.55,1.67,23.1,3.32,34.65,5.02,2.16.32,4.3.8,6.45,1.21Z"/>
    <path class="cls-6" d="m454.91,119.32c-7.4,1.39-14.65-.85-22.02-.84-122.16.11-244.32.07-366.49.08q-12.21,0-12.22,12.31c0,31.49.01,62.98-.02,94.47,0,3.32.43,6.73-1.17,9.87-1.47-2.43-1.29-5.14-1.35-7.81-.49-22.07-.95-44.13-1.52-66.2-.14-5.3-.67-10.59-1.01-15.89-.22-10.27-.28-20.54-.74-30.8-.19-4.29,1.1-5.92,5.54-5.95,11.61-.09,23.21-.7,34.82-.87,4.01-.06,6.48-1.13,6.19-5.62-.03-.44.1-.89.17-1.33,2.49-16.26,2.47-16.13,18.6-14,39.83,5.24,79.66,10.51,119.53,15.44,13.55,1.67,27.22.02,40.82-.37,57.13-1.64,114.27-3.38,171.39-5.4,6.36-.22,8.06,1.88,8.14,7.76.07,5.03-.94,10.28,1.35,15.15Z"/>
    <path class="cls-2" d="m489.05,538.88c-1.1-16.33,1.27-32.56,1.49-48.86.18-13.82,1.59-27.63,2.18-41.45,1.55-36.14,2.95-72.29,4.41-108.43.02-.45,0-.9.06-1.34.6-4.85-.19-10.59,2.18-14.33,2.81-4.43,8.7-.66,13.23-.88,13.17-.64,22.33-9.45,23.03-23.15,1.07-21.18,1.98-42.38,2.84-63.57,1.03-24.99,1.92-49.98,2.92-74.97.22-5.46-.33-10.7-3.3-15.46,4.65.52,9.33.87,13.95,1.58,10.36,1.6,18.24,11.05,17.54,22.02-.8,12.69-2.24,25.35-3.73,37.98-3.98,33.92-8.27,67.8-12.16,101.72-1.84,16.01-10.76,23.99-26.8,23.07-1.56-.09-3.17-.04-4.67-.41-5.74-1.45-8.24.93-8.85,6.61-1.67,15.54-3.57,31.05-5.39,46.57-2.58,21.95-5.21,43.89-7.75,65.85-3.03,26.16-5.97,52.33-8.97,78.5-.35,3.07-.09,6.31-2.21,8.95Z"/>
    <path class="cls-4" d="m59.02,691.59c26.83-.07,53.65-.19,80.48-.2,55.44-.03,110.89.08,166.33-.07,14.56-.04,29.04.43,43.45,2.5,13.26,3.01,26.79,4.07,40.24,5.74,4.65.58,9.92-.47,13.51,3.94-14.58,2.35-29.34,1.91-44.01,2.53-93.71,3.96-187.42,7.64-281.13,11.49-17.95.74-17.94.89-18.43-17.23-.08-2.9-.28-5.8-.43-8.69Z"/>
    <path class="cls-6" d="m51.59,443.1c1.98,2.36,2.51,5.17,2.51,8.14-.07,68.55-.15,137.09-.22,205.64-7.11-2.12-14.52-2.7-21.81-3.16-6.68-.42-8.04-2.97-7.19-9.18,4.41-32.29,8.47-64.62,12.65-96.94,3.72-28.78,7.53-57.54,11.1-86.34.74-5.96.58-12.03.83-18.04.71-.04,1.42-.08,2.13-.12Z"/>
    <path class="cls-4" d="m51.59,443.1c-.71.04-1.42.08-2.13.12-.88-15.82-1.96-31.63-2.61-47.46-3.26-78.98-6.43-157.97-9.57-236.95-.48-12.08-.36-12.09,11.83-13.5.35,5.29.88,10.59,1.01,15.89.57,22.06,1.02,44.13,1.52,66.2.06,2.67-.11,5.38,1.35,7.81.08,59.74.16,119.49.25,179.23.01,9.59,0,19.17-1.65,28.67Z"/>
    <path class="cls-6" d="m403.03,703.49c-3.59-4.41-8.86-3.36-13.51-3.94-13.45-1.67-26.98-2.73-40.24-5.74,1.61-2.39,4.1-2.42,6.58-2.41,23.86.07,47.72.15,71.58.22-.45,3.9-.89,7.81-1.34,11.71-7.69.05-15.38.1-23.08.15Z"/>
    <path class="cls-4" d="m426.11,703.33c.45-3.9.89-7.81,1.34-11.71,8.43-.1,16.86-.36,25.29-.25,4.52.06,6.5-1.66,6.38-6.24-.15-5.54.03-11.09.07-16.64,1.83.01,3.67.02,5.5.03-2.27,8.14.27,16.2.43,24.3.73,7.4-2.69,9.69-9.92,9.49-9.68-.27-19.39.63-29.09,1.03Z"/>
    <path class="cls-5" d="m487.3,560.09c.31-2.68.62-5.36.93-8.04.4,2.76.56,5.5-.93,8.04Z"/>
    <path class="cls-5" d="m488.59,546.25c-.71-1.83-.26-3.58.33-5.33.79,1.83.6,3.61-.33,5.33Z"/>
    <path class="cls-6" d="m54.06,690.12c.51.37,1.02.73,1.53,1.1-.85.11-1.42-.17-1.53-1.1Z"/>
    <path class="cls-4" d="m256.07,161.35c31.08,0,62.16-.1,93.23.05,13.09.06,20.15,7.87,19.06,20.37-.61,6.97-5.9,13.23-12.83,14.5-4.15.76-8.44,1.08-12.66,1.08-58.35.07-116.71.05-175.06.04-2.46,0-4.94.02-7.36-.29-10.77-1.4-16.96-8.63-16.53-19.12.4-9.82,7.45-16.5,18.25-16.56,29.29-.16,58.58-.08,87.87-.09,2.01,0,4.02,0,6.04,0v.03Z"/>
    <path class="cls-6" d="m256.83,380.09c47.58,0,95.16,0,142.74,0,1.79,0,3.6-.18,5.36.04,3.22.41,8.32-1.53,8.31,3.95,0,5.47-5.12,3.91-8.32,3.91-99.18.09-198.36.07-297.54.06-1.56,0-3.13-.01-4.68-.18-2.23-.24-3.82-1.28-3.82-3.8,0-2.51,1.6-3.6,3.83-3.78,2.44-.2,4.91-.2,7.36-.2,48.92,0,97.84,0,146.76,0Z"/>
    <path class="cls-6" d="m256.87,401.57c48.47,0,96.94,0,145.41,0,1.12,0,2.25-.11,3.35.03,3.08.37,7.71-1.12,7.65,3.99-.06,5.06-4.69,3.86-7.75,3.86-92.47.07-184.94.06-277.42.06-7.59,0-15.19.05-22.78-.05-2.84-.04-6.43.32-6.38-3.96.05-4.25,3.66-3.87,6.48-3.87,29.04-.06,58.07-.04,87.11-.05,21.44,0,42.89,0,64.33,0Z"/>
    <path class="cls-6" d="m255.45,308.94c-48.28,0-96.56,0-144.84,0-2.01,0-4.03.04-6.03-.05-2.47-.1-5.37-.02-5.58-3.38-.23-3.61,2.57-4.28,5.43-4.44,2.01-.12,4.02-.09,6.03-.09,97.46,0,194.91,0,292.37,0,2.23,0,4.48,0,6.7.18,2.21.18,3.86,1.2,3.9,3.72.04,2.51-1.5,3.65-3.75,3.85-2.22.2-4.46.19-6.7.19-49.17,0-98.35,0-147.52,0Z"/>
    <path class="cls-6" d="m256.08,543.8c49.37,0,98.74-.04,148.11.09,3.35,0,8.92-1.93,9,3.84.09,5.86-5.51,3.99-8.86,3.99-98.52.1-197.03.11-295.55,0-3.56,0-9.55,1.86-9.4-4.2.14-5.35,5.82-3.63,9.25-3.64,49.15-.11,98.29-.08,147.44-.08Z"/>
    <path class="cls-6" d="m255.58,429.96c-50.7,0-101.4,0-152.1.03-2.37,0-4.72.23-4.64-3.11.06-2.9,2.12-3.68,4.56-3.79,2.01-.09,4.02-.1,6.03-.1,97.83,0,195.66,0,293.49,0,2.45,0,4.91.07,7.35.29,1.72.16,2.95,1.19,2.97,3.04.02,1.84-1.17,2.93-2.89,3.11-2.44.25-4.9.32-7.35.32-49.14.02-98.28.01-147.41.01,0,.06,0,.12,0,.18Z"/>
    <path class="cls-6" d="m255.41,266.04c-47.82,0-95.63,0-143.45,0-1.79,0-3.59.16-5.36-.04-2.85-.33-7.42,1.22-7.37-3.37.05-4.48,4.6-3.3,7.46-3.31,88.26-.07,176.52-.06,264.78-.06,11.17,0,22.34-.02,33.52.02,2,0,4.02.15,5.98.51,1.44.26,2.28,1.42,2.26,2.92-.02,1.5-.9,2.66-2.34,2.85-2.42.32-4.89.45-7.33.45-49.38.02-98.76.02-148.14.02Z"/>
    <path class="cls-6" d="m256.16,287.5c-49.38,0-98.76.04-148.14-.08-3.17,0-8.65,1.85-8.69-3.26-.03-5.12,5.45-3.35,8.63-3.36,98.76-.1,197.52-.08,296.29-.08.22,0,.45-.03.67,0,3.01.55,8.04-1.45,8.06,3.37.03,4.89-5.02,3.32-8.01,3.32-49.6.1-99.21.07-148.81.07Z"/>
    <path class="cls-6" d="m256.27,508.87c-49.19,0-98.37.04-147.56-.08-3.42,0-9.22,1.76-9.22-3.56,0-4.91,5.62-3,8.78-3,98.6-.11,197.19-.11,295.79-.01,3.2,0,8.76-1.82,8.82,3.07.07,5.63-5.77,3.48-9.06,3.49-49.19.15-98.37.1-147.56.1Z"/>
    <path class="cls-6" d="m256.07,523.54c49.38,0,98.77-.04,148.15.08,3.19,0,8.63-1.81,8.73,3.24.11,5.24-5.39,3.41-8.55,3.42-98.32.1-196.64.1-294.96,0-3.66,0-9.86,1.57-9.72-3.86.13-5.03,6.18-2.77,9.53-2.78,48.94-.16,97.87-.11,146.81-.11Z"/>
    <path class="cls-4" d="m176.93,366.44c-22.79,0-45.57,0-68.36,0-1.79,0-3.57-.01-5.36-.09-2.48-.11-4.46-.89-4.36-3.87.1-3.03,2.28-3.48,4.66-3.59,1.34-.06,2.68-.07,4.02-.07,46.69,0,93.37,0,140.06,0,1.34,0,2.68.01,4.02.07,2.38.1,4.6.55,4.68,3.57.1,3.45-2.36,3.92-4.99,3.93-13.4.04-26.81.05-40.21.05-11.39,0-22.79,0-34.18,0Z"/>
    <path class="cls-4" d="m177.71,237.75c23.21,0,46.43,0,69.64.01,2,0,4.02.08,6.01.27,1.84.17,2.78,1.4,2.77,3.17,0,1.77-.93,2.99-2.78,3.16-1.77.17-3.56.23-5.34.24-47.1.01-94.19.01-141.29,0-1.56,0-3.12-.04-4.68-.16-1.76-.14-2.94-1.03-3.06-2.91-.14-2.16.95-3.39,3.07-3.56,2-.16,4.01-.21,6.02-.22,23.21-.01,46.43,0,69.64,0Z"/>
    <path class="cls-4" d="m177.75,487.46c-23.21,0-46.41,0-69.62,0-2.01,0-4.02-.04-6.02-.19-2.11-.16-3.24-1.36-3.09-3.53.13-1.88,1.32-2.75,3.08-2.87,1.78-.12,3.56-.18,5.35-.18,46.63,0,93.27,0,139.9,0,.45,0,.91-.07,1.34.01,2.76.53,7.3-1.43,7.3,3.38,0,4.81-4.51,3.31-7.29,3.33-23.65.12-47.3.07-70.95.07Z"/>
    <path class="cls-4" d="m353.4,609.24c-16.98,0-33.97,0-50.95,0-2.01,0-4.03-.04-6.02-.24-2.03-.21-3.21-1.38-3.25-3.54-.05-2.21,1.18-3.3,3.2-3.53,1.77-.2,3.57-.25,5.35-.25,34.42-.01,68.83-.01,103.25,0,1.78,0,3.58.06,5.35.25,2.03.22,3.24,1.3,3.23,3.51,0,2.17-1.12,3.37-3.18,3.56-2.22.2-4.46.24-6.69.24-16.76.02-33.52,0-50.28,0Z"/>
    <path class="cls-4" d="m383.76,623.13c7.81,0,15.62-.08,23.42.04,2.73.04,6.39-.61,6.3,3.89-.08,4.02-3.43,3.52-5.97,3.54-15.84.08-31.68.08-47.52,0-2.77-.01-6.47.5-6.3-3.91.17-4.42,3.98-3.45,6.64-3.51,7.8-.16,15.61-.06,23.42-.06Z"/>
  </g>
  <g>
    <path class="cls-3" d="m489.74,414.91c-5.55.02-11.1,0-16.65.01-1.44,0-2.89-.1-4.29.31-.96,5.94-2.16,11.83-3.92,17.63-.11.35-.2.7-.32,1.05-1.1,3.16-2.16,6.33-3.32,9.47-1.43,3.88-3.17,7.67-5.13,11.36-2.76,5.19-5.84,10.24-9.18,15.15-3.48,5.14-7.23,10.12-11.29,14.91-2.45,2.89-5.04,5.68-7.74,8.38-2.77,2.79-5.59,5.54-8.57,8.15-5.21,4.58-10.65,8.91-16.4,12.96-7.61,5.36-15.59,10.24-23.96,14.6-7.61,3.97-15.48,7.5-23.64,10.5-8.69,3.2-17.6,5.78-26.68,7.96-6.38,1.53-12.83,2.75-19.3,3.89-2.33.41-4.68.7-7.02,1.04-.63.46-1.37.27-2.08.29h-.02c-.63.47-1.37.28-2.08.29-.12.01-.23.02-.35.03-.64.46-1.38.27-2.09.28l-.35.03c-.75.47-1.61.26-2.43.29l-.35.03c-.76.47-1.61.26-2.44.28-.12,0-.24.02-.35.02-.25.24-.59.27-.93.28-.62,0-1.23,0-1.85,0l-.36.02c-.26.24-.59.27-.93.27-.73,0-1.46,0-2.19.01-.12,0-.24.01-.36.02-.21.19-.48.26-.77.27-.9,0-1.8.01-2.71.02-2.82.19-5.63.46-8.45.56-3.29.11-6.58.06-9.88.11-2.49.04-4.95-.31-7.43-.35-1.13,0-2.26-.02-3.4-.02-.29,0-.56-.08-.77-.26l-.36-.02c-.96,0-1.92-.02-2.88-.02-.34,0-.68-.03-.94-.27-.12,0-.24-.01-.36-.02-.79,0-1.57-.01-2.36-.02-.29,0-.55-.08-.76-.27-.12,0-.24-.02-.36-.02-.67,0-1.34,0-2.02-.02-.29,0-.55-.08-.76-.27h-.02c-.67-.01-1.34-.02-2.01-.03-.29,0-.55-.09-.76-.27-.12,0-.24-.02-.35-.03-.82-.02-1.67.18-2.42-.29-.12,0-.24-.02-.36-.03-.71,0-1.45.18-2.08-.28h-.02c-.81-.05-1.67.17-2.41-.32-5.32-.72-10.61-1.57-15.87-2.6-9.51-1.86-18.89-4.15-28.08-7.02-5.09-1.59-10.09-3.37-15.02-5.31-11.48-4.53-22.35-10.04-32.72-16.35-4.88-2.97-9.55-6.2-14.14-9.54-6.67-4.85-12.8-10.2-18.62-15.83-5.07-4.9-9.78-10.08-14.09-15.56-4.94-6.28-9.34-12.84-13.3-19.62-6.33-6.61-16.99-20.53-20.09-24.37-.67-.83-1.54-4.15-2.27-7.02-.93-3.66-2.19-8.6-1.54-11.67-1.34,0-2.67,0-4.01,0l-.96,39.93s-.03.07-.07.07h-.06c2.56,6.5,5.44,12.89,8.5,19.22,3.13,6.46,6.46,12.84,9.89,19.18,4.21,7.78,8.55,15.51,13.17,23.11,3.29,5.41,6.65,10.79,10.12,16.11,5.46,8.36,11.19,16.58,17.11,24.69,3.9,5.33,7.9,10.6,12.02,15.79,3.52,4.43,7.1,8.82,10.7,13.21,4.7,5.72,9.56,11.32,14.51,16.86,2.6,2.91,5.23,5.81,7.89,8.68,2.78,2.99,5.6,5.94,8.42,8.89,2.64,2.75,5.27,5.51,7.96,8.22,3.03,3.06,6.09,6.11,9.2,9.11,3.86,3.72,7.74,7.43,11.7,11.07,7.35,6.76,14.83,13.42,22.51,19.88,2.45,2.06,4.9,4.12,7.35,6.17.13.11.26.21.38.32,3.68,3,7.38,5.99,11.03,9.02,3.14,2.61,6.25,5.24,9.59,7.66,3.17,2.29,6.54,4.28,10.27,5.77,3.57,1.43,7.31,2.3,11.19,2.67,2.33,0,4.65,0,6.98,0,.4-.03.81-.04,1.21-.09,4.94-.69,9.48-2.29,13.69-4.68,4.08-2.31,7.7-5.14,11.28-8.01,4.06-3.25,8.08-6.53,12.07-9.84,4.21-3.49,8.42-6.97,12.53-10.54,9.06-7.87,18.03-15.83,26.67-24.07,2.06-1.97,4.13-3.93,6.18-5.9,1.22-1.18,2.44-2.36,3.63-3.56,3.15-3.18,6.3-6.35,9.43-9.55,2.6-2.65,5.2-5.29,7.73-7.99,3.09-3.29,6.16-6.6,9.17-9.95,3.78-4.19,7.55-8.39,11.22-12.66,3.91-4.56,7.73-9.18,11.53-13.82,7.13-8.68,13.92-17.58,20.46-26.62,6.01-8.31,11.77-16.75,17.29-25.31,4.4-6.82,8.62-13.72,12.69-20.7,2.7-4.64,5.29-9.33,7.81-14.05,3.47-6.49,6.78-13.05,9.93-19.67,4.24-8.91,8.1-17.94,11.79-27.04,1.11-2.72,1.98-5.51,2.76-8.33.93-3.36,1.99-6.69,2.74-10.1.65-2.99,1.33-5.98,1.87-8.99.39-2.19.81-4.39.86-6.62-1-.26-2.02-.34-3.07-.34Zm-180.96,220.24c-2.54,2.71-5.83,4.36-9.71,5.09-1.25.24-2.52.31-3.8.3-3.59-.02-7.19,0-10.78,0-.46,0-.93,0-1.39.03-.33.02-.53.21-.55.5-.03.41-.03.83-.03,1.24,0,3.31.04,6.63-.01,9.94-.11,6.26-3.32,10.94-9.49,13.78-6.72,3.09-13.36,2.56-19.51-1.34-3.57-2.27-5.84-5.44-6.74-9.3-.27-1.15-.43-2.34-.41-3.54.03-3.11.01-6.21.01-9.32,0-.26,0-.52,0-.78-.03-1.19-.03-1.21-1.38-1.21-3.88,0-7.77.04-11.65-.01-7.02-.09-12.1-3.07-15.47-8.48-1.58-2.54-2.26-5.32-2.13-8.21.33-7.46,5.99-13.56,13.68-15.19.39-.08.8-.1,1.2-.15.49-.39,1.09-.28,1.65-.28,2.42-.02,4.85-.01,7.27-.01,2.25,0,4.5,0,6.75,0,.02-.57.07-1.14.07-1.7,0-3.16,0-6.31,0-9.47,0-1.88.33-3.71,1.01-5.48,1.44-3.73,4.16-6.53,7.97-8.49,3.2-1.64,6.67-2.38,10.34-2.14,3.78.24,7.22,1.37,10.22,3.49,2.52,1.78,4.36,3.99,5.51,6.65.7,1.6,1.12,3.25,1.12,4.99-.02,3.42,0,6.83,0,10.25,0,.62.02,1.24.04,1.86,2.53.02,5.06.04,7.59.05,2.24,0,4.49,0,6.73.02.56,0,1.16-.1,1.64.3,7.08.97,12.84,6.05,14.26,12.42,1.18,5.29-.12,10.08-4.02,14.22Z"/>
    <path class="cls-3" d="m61.35,418.51c-.07-.27-.14-.53-.21-.8-.14,0-.28,0-.43,0,.2.25.42.52.63.8Z"/>
  </g>
</svg>